M48
; DRILL file {KiCad (5.1.10)-1} date 05/03/22 20:41:34
; FORMAT={-:-/ absolute / metric / decimal}
; #@! TF.CreationDate,2022-05-03T20:41:34+02:00
; #@! TF.GenerationSoftware,Kicad,Pcbnew,(5.1.10)-1
; #@! TF.FileFunction,Plated,1,4,PTH
FMAT,2
METRIC
T1C0.300
T2C0.400
T3C0.460
T4C0.600
T5C0.750
T6C0.762
%
G90
G05
T1
X118.01Y-75.39
X120.12Y-112.07
X120.25Y-101.07
X120.31Y-104.32
X120.38Y-119.99
X120.39Y-114.74
X120.39Y-117.44
X120.53Y-110.14
X120.59Y-98.38
X120.86Y-90.88
X121.2Y-88.16
X121.971Y-119.99
X121.98Y-95.78
X123.48Y-103.14
X123.5Y-97.77
X124.46Y-93.34
X125.67Y-91.0
X126.47Y-89.49
X126.94Y-124.26
X128.77Y-127.94
X130.38Y-86.71
X130.66Y-99.1
X130.68Y-98.06
X132.461Y-126.67
X132.61Y-86.57
X132.84Y-112.99
X132.994Y-78.435
X133.858Y-79.451
X134.696Y-76.276
X135.26Y-114.22
X135.636Y-125.4
X136.92Y-113.82
X137.82Y-106.477
X139.34Y-115.12
X139.344Y-120.726
X139.97Y-97.42
X140.2Y-100.25
X140.35Y-111.08
X140.57Y-98.81
X140.589Y-131.089
X141.859Y-127.737
X142.56Y-86.88
X142.62Y-84.29
X142.85Y-113.69
X143.434Y-98.577
X143.866Y-105.283
X143.88Y-112.36
X143.89Y-118.93
X144.68Y-98.38
X144.856Y-77.572
X145.313Y-82.575
X145.37Y-106.63
X145.771Y-99.441
X145.796Y-132.258
X145.847Y-103.683
X145.948Y-87.325
X147.777Y-124.003
X148.031Y-87.376
X149.02Y-117.11
X149.31Y-125.55
X150.54Y-76.46
X150.94Y-124.71
X151.638Y-87.401
X151.816Y-98.806
X151.841Y-102.667
X152.603Y-123.673
X154.254Y-99.67
X154.457Y-82.525
X154.457Y-118.186
X154.915Y-80.569
X155.7Y-76.5
X156.083Y-121.768
X156.997Y-124.714
X157.531Y-76.556
X160.579Y-97.282
X160.579Y-100.432
X160.579Y-106.147
X161.112Y-81.102
X161.29Y-76.34
X161.646Y-112.751
X161.91Y-92.57
X162.154Y-125.273
X162.36Y-100.26
X162.39Y-102.69
X162.43Y-105.12
X162.58Y-95.08
X163.89Y-76.28
T2
X165.252Y-115.037
T3
X122.061Y-79.723
X130.821Y-79.723
T5
X163.134Y-128.308
X163.134Y-130.308
T6
X118.034Y-79.268
X118.034Y-81.808
X118.034Y-84.348
X118.034Y-86.888
X118.034Y-89.428
X118.034Y-91.968
X118.034Y-94.508
X118.034Y-97.048
X118.034Y-99.588
X118.034Y-102.128
X118.043Y-105.836
X118.043Y-108.376
X118.043Y-110.916
X118.043Y-113.456
X118.043Y-115.996
X118.043Y-118.536
X118.043Y-121.076
X118.043Y-123.616
X118.043Y-126.156
X118.043Y-128.696
X147.34Y-74.498
X149.88Y-74.498
X152.42Y-74.498
X154.96Y-74.498
X157.5Y-74.498
X160.04Y-74.498
X162.58Y-74.498
X165.12Y-74.498
X165.134Y-88.398
X165.134Y-90.938
X165.134Y-93.478
X165.134Y-96.018
X165.134Y-98.558
X165.134Y-101.098
X165.134Y-103.638
X165.134Y-106.178
X165.134Y-108.718
X165.134Y-111.258
T4
X150.23Y-126.695G85X150.23Y-127.795
G05
X150.23Y-131.025G85X150.23Y-131.825
G05
X158.87Y-126.695G85X158.87Y-127.795
G05
X158.87Y-131.025G85X158.87Y-131.825
G05
T0
M30
