M48
; DRILL file {KiCad (5.1.10)-1} date 10/24/21 18:32:03
; FORMAT={-:-/ absolute / metric / decimal}
; #@! TF.CreationDate,2021-10-24T18:32:03+02:00
; #@! TF.GenerationSoftware,Kicad,Pcbnew,(5.1.10)-1
; #@! TF.FileFunction,Plated,1,4,PTH
FMAT,2
METRIC
T1C0.300
T2C0.400
T3C0.460
T4C0.600
T5C0.750
T6C0.762
%
G90
G05
T1
X118.059Y-76.784
X119.49Y-112.07
X120.294Y-105.842
X120.371Y-115.976
X120.396Y-89.433
X120.396Y-118.466
X120.447Y-92.024
X120.523Y-102.108
X120.523Y-110.871
X120.548Y-121.082
X120.599Y-99.619
X121.971Y-121.107
X123.444Y-96.241
X124.13Y-103.429
X125.349Y-97.765
X130.38Y-86.71
X132.461Y-126.67
X132.994Y-78.435
X133.06Y-87.61
X133.858Y-79.451
X134.696Y-76.276
X135.636Y-125.4
X137.82Y-106.477
X139.34Y-115.12
X139.344Y-120.726
X140.16Y-98.87
X140.2Y-97.48
X140.2Y-100.25
X140.589Y-131.089
X140.64Y-113.614
X141.859Y-127.737
X142.56Y-86.88
X142.62Y-84.29
X142.85Y-113.69
X143.434Y-98.577
X143.866Y-105.283
X143.88Y-112.36
X143.89Y-118.93
X144.831Y-106.731
X144.856Y-77.572
X145.313Y-82.575
X145.771Y-99.441
X145.796Y-132.258
X145.847Y-103.683
X145.948Y-87.325
X146.837Y-97.434
X147.777Y-124.003
X148.031Y-87.376
X149.31Y-125.55
X149.86Y-76.53
X150.94Y-124.71
X151.638Y-87.401
X151.816Y-98.806
X151.841Y-102.667
X152.603Y-123.673
X154.254Y-99.67
X154.457Y-82.525
X154.457Y-118.186
X154.915Y-80.569
X154.965Y-76.581
X156.083Y-121.768
X156.997Y-124.714
X157.531Y-76.556
X160.579Y-97.282
X160.579Y-100.432
X160.579Y-106.147
X161.112Y-81.102
X161.646Y-112.751
X162.154Y-125.273
X162.382Y-101.067
X162.408Y-103.607
X162.433Y-106.096
X162.484Y-93.548
X162.56Y-76.454
X162.56Y-95.961
X165.125Y-76.454
T2
X165.252Y-115.037
T3
X122.061Y-79.723
X130.821Y-79.723
T5
X163.134Y-128.308
X163.134Y-130.308
T6
X118.034Y-79.268
X118.034Y-81.808
X118.034Y-84.348
X118.034Y-86.888
X118.034Y-89.428
X118.034Y-91.968
X118.034Y-94.508
X118.034Y-97.048
X118.034Y-99.588
X118.034Y-102.128
X118.043Y-105.836
X118.043Y-108.376
X118.043Y-110.916
X118.043Y-113.456
X118.043Y-115.996
X118.043Y-118.536
X118.043Y-121.076
X118.043Y-123.616
X118.043Y-126.156
X118.043Y-128.696
X147.34Y-74.498
X149.88Y-74.498
X152.42Y-74.498
X154.96Y-74.498
X157.5Y-74.498
X160.04Y-74.498
X162.58Y-74.498
X165.12Y-74.498
X165.134Y-88.398
X165.134Y-90.938
X165.134Y-93.478
X165.134Y-96.018
X165.134Y-98.558
X165.134Y-101.098
X165.134Y-103.638
X165.134Y-106.178
X165.134Y-108.718
X165.134Y-111.258
T4
X150.23Y-126.695G85X150.23Y-127.795
G05
X150.23Y-131.025G85X150.23Y-131.825
G05
X158.87Y-126.695G85X158.87Y-127.795
G05
X158.87Y-131.025G85X158.87Y-131.825
G05
T0
M30
