G04 #@! TF.GenerationSoftware,KiCad,Pcbnew,(5.1.10)-1*
G04 #@! TF.CreationDate,2022-05-03T20:41:15+02:00*
G04 #@! TF.ProjectId,rak3172_easeboard,72616b33-3137-4325-9f65-617365626f61,rev?*
G04 #@! TF.SameCoordinates,Original*
G04 #@! TF.FileFunction,Legend,Top*
G04 #@! TF.FilePolarity,Positive*
%FSLAX46Y46*%
G04 Gerber Fmt 4.6, Leading zero omitted, Abs format (unit mm)*
G04 Created by KiCad (PCBNEW (5.1.10)-1) date 2022-05-03 20:41:15*
%MOMM*%
%LPD*%
G01*
G04 APERTURE LIST*
%ADD10C,0.152400*%
%ADD11C,0.153000*%
%ADD12C,0.120000*%
%ADD13C,0.100000*%
%ADD14C,0.200000*%
%ADD15C,0.150000*%
%ADD16R,1.550000X1.300000*%
%ADD17R,0.700000X3.200000*%
%ADD18R,3.200000X0.700000*%
%ADD19R,0.300000X1.150000*%
%ADD20R,0.600000X1.150000*%
%ADD21C,0.650000*%
%ADD22O,1.050000X2.100000*%
%ADD23O,1.000000X2.000000*%
%ADD24R,1.524000X1.524000*%
%ADD25C,1.524000*%
%ADD26R,2.000000X0.650000*%
%ADD27R,0.450000X1.750000*%
%ADD28O,1.750000X1.200000*%
%ADD29R,2.290000X5.080000*%
%ADD30R,2.420000X5.080000*%
G04 APERTURE END LIST*
D10*
X158511600Y-85621942D02*
X158627714Y-85660647D01*
X158666419Y-85699352D01*
X158705123Y-85776761D01*
X158705123Y-85892876D01*
X158666419Y-85970285D01*
X158627714Y-86008990D01*
X158550304Y-86047695D01*
X158240666Y-86047695D01*
X158240666Y-85234895D01*
X158511600Y-85234895D01*
X158589009Y-85273600D01*
X158627714Y-85312304D01*
X158666419Y-85389714D01*
X158666419Y-85467123D01*
X158627714Y-85544533D01*
X158589009Y-85583238D01*
X158511600Y-85621942D01*
X158240666Y-85621942D01*
X158937352Y-85234895D02*
X159401809Y-85234895D01*
X159169580Y-86047695D02*
X159169580Y-85234895D01*
X159672742Y-86047695D02*
X159672742Y-85234895D01*
X160137200Y-86047695D01*
X160137200Y-85234895D01*
X160524247Y-85970285D02*
X160562952Y-86008990D01*
X160524247Y-86047695D01*
X160485542Y-86008990D01*
X160524247Y-85970285D01*
X160524247Y-86047695D01*
X161182228Y-85621942D02*
X161298342Y-85660647D01*
X161337047Y-85699352D01*
X161375752Y-85776761D01*
X161375752Y-85892876D01*
X161337047Y-85970285D01*
X161298342Y-86008990D01*
X161220933Y-86047695D01*
X160911295Y-86047695D01*
X160911295Y-85234895D01*
X161182228Y-85234895D01*
X161259638Y-85273600D01*
X161298342Y-85312304D01*
X161337047Y-85389714D01*
X161337047Y-85467123D01*
X161298342Y-85544533D01*
X161259638Y-85583238D01*
X161182228Y-85621942D01*
X160911295Y-85621942D01*
X161878914Y-85234895D02*
X162033733Y-85234895D01*
X162111142Y-85273600D01*
X162188552Y-85351009D01*
X162227257Y-85505828D01*
X162227257Y-85776761D01*
X162188552Y-85931580D01*
X162111142Y-86008990D01*
X162033733Y-86047695D01*
X161878914Y-86047695D01*
X161801504Y-86008990D01*
X161724095Y-85931580D01*
X161685390Y-85776761D01*
X161685390Y-85505828D01*
X161724095Y-85351009D01*
X161801504Y-85273600D01*
X161878914Y-85234895D01*
X162730419Y-85234895D02*
X162885238Y-85234895D01*
X162962647Y-85273600D01*
X163040057Y-85351009D01*
X163078761Y-85505828D01*
X163078761Y-85776761D01*
X163040057Y-85931580D01*
X162962647Y-86008990D01*
X162885238Y-86047695D01*
X162730419Y-86047695D01*
X162653009Y-86008990D01*
X162575600Y-85931580D01*
X162536895Y-85776761D01*
X162536895Y-85505828D01*
X162575600Y-85351009D01*
X162653009Y-85273600D01*
X162730419Y-85234895D01*
X163310990Y-85234895D02*
X163775447Y-85234895D01*
X163543219Y-86047695D02*
X163543219Y-85234895D01*
X147256057Y-85671942D02*
X147372171Y-85710647D01*
X147410876Y-85749352D01*
X147449580Y-85826761D01*
X147449580Y-85942876D01*
X147410876Y-86020285D01*
X147372171Y-86058990D01*
X147294761Y-86097695D01*
X146985123Y-86097695D01*
X146985123Y-85284895D01*
X147256057Y-85284895D01*
X147333466Y-85323600D01*
X147372171Y-85362304D01*
X147410876Y-85439714D01*
X147410876Y-85517123D01*
X147372171Y-85594533D01*
X147333466Y-85633238D01*
X147256057Y-85671942D01*
X146985123Y-85671942D01*
X147681809Y-85284895D02*
X148146266Y-85284895D01*
X147914038Y-86097695D02*
X147914038Y-85284895D01*
X148417200Y-86097695D02*
X148417200Y-85284895D01*
X148881657Y-86097695D01*
X148881657Y-85284895D01*
X149268704Y-86020285D02*
X149307409Y-86058990D01*
X149268704Y-86097695D01*
X149230000Y-86058990D01*
X149268704Y-86020285D01*
X149268704Y-86097695D01*
X150120209Y-86097695D02*
X149849276Y-85710647D01*
X149655752Y-86097695D02*
X149655752Y-85284895D01*
X149965390Y-85284895D01*
X150042800Y-85323600D01*
X150081504Y-85362304D01*
X150120209Y-85439714D01*
X150120209Y-85555828D01*
X150081504Y-85633238D01*
X150042800Y-85671942D01*
X149965390Y-85710647D01*
X149655752Y-85710647D01*
X150429847Y-86058990D02*
X150545961Y-86097695D01*
X150739485Y-86097695D01*
X150816895Y-86058990D01*
X150855600Y-86020285D01*
X150894304Y-85942876D01*
X150894304Y-85865466D01*
X150855600Y-85788057D01*
X150816895Y-85749352D01*
X150739485Y-85710647D01*
X150584666Y-85671942D01*
X150507257Y-85633238D01*
X150468552Y-85594533D01*
X150429847Y-85517123D01*
X150429847Y-85439714D01*
X150468552Y-85362304D01*
X150507257Y-85323600D01*
X150584666Y-85284895D01*
X150778190Y-85284895D01*
X150894304Y-85323600D01*
X151126533Y-85284895D02*
X151590990Y-85284895D01*
X151358761Y-86097695D02*
X151358761Y-85284895D01*
X137437714Y-75894895D02*
X137437714Y-76552876D01*
X137476419Y-76630285D01*
X137515123Y-76668990D01*
X137592533Y-76707695D01*
X137747352Y-76707695D01*
X137824761Y-76668990D01*
X137863466Y-76630285D01*
X137902171Y-76552876D01*
X137902171Y-75894895D01*
X138250514Y-76668990D02*
X138366628Y-76707695D01*
X138560152Y-76707695D01*
X138637561Y-76668990D01*
X138676266Y-76630285D01*
X138714971Y-76552876D01*
X138714971Y-76475466D01*
X138676266Y-76398057D01*
X138637561Y-76359352D01*
X138560152Y-76320647D01*
X138405333Y-76281942D01*
X138327923Y-76243238D01*
X138289219Y-76204533D01*
X138250514Y-76127123D01*
X138250514Y-76049714D01*
X138289219Y-75972304D01*
X138327923Y-75933600D01*
X138405333Y-75894895D01*
X138598857Y-75894895D01*
X138714971Y-75933600D01*
X139527771Y-76707695D02*
X139256838Y-76320647D01*
X139063314Y-76707695D02*
X139063314Y-75894895D01*
X139372952Y-75894895D01*
X139450361Y-75933600D01*
X139489066Y-75972304D01*
X139527771Y-76049714D01*
X139527771Y-76165828D01*
X139489066Y-76243238D01*
X139450361Y-76281942D01*
X139372952Y-76320647D01*
X139063314Y-76320647D01*
X139876114Y-76630285D02*
X139914819Y-76668990D01*
X139876114Y-76707695D01*
X139837409Y-76668990D01*
X139876114Y-76630285D01*
X139876114Y-76707695D01*
X140650209Y-76707695D02*
X140263161Y-76707695D01*
X140263161Y-75894895D01*
X140921142Y-76281942D02*
X141192076Y-76281942D01*
X141308190Y-76707695D02*
X140921142Y-76707695D01*
X140921142Y-75894895D01*
X141308190Y-75894895D01*
X141656533Y-76707695D02*
X141656533Y-75894895D01*
X141850057Y-75894895D01*
X141966171Y-75933600D01*
X142043580Y-76011009D01*
X142082285Y-76088419D01*
X142120990Y-76243238D01*
X142120990Y-76359352D01*
X142082285Y-76514171D01*
X142043580Y-76591580D01*
X141966171Y-76668990D01*
X141850057Y-76707695D01*
X141656533Y-76707695D01*
X126359009Y-130264895D02*
X126359009Y-130922876D01*
X126397714Y-131000285D01*
X126436419Y-131038990D01*
X126513828Y-131077695D01*
X126668647Y-131077695D01*
X126746057Y-131038990D01*
X126784761Y-131000285D01*
X126823466Y-130922876D01*
X126823466Y-130264895D01*
X127171809Y-131038990D02*
X127287923Y-131077695D01*
X127481447Y-131077695D01*
X127558857Y-131038990D01*
X127597561Y-131000285D01*
X127636266Y-130922876D01*
X127636266Y-130845466D01*
X127597561Y-130768057D01*
X127558857Y-130729352D01*
X127481447Y-130690647D01*
X127326628Y-130651942D01*
X127249219Y-130613238D01*
X127210514Y-130574533D01*
X127171809Y-130497123D01*
X127171809Y-130419714D01*
X127210514Y-130342304D01*
X127249219Y-130303600D01*
X127326628Y-130264895D01*
X127520152Y-130264895D01*
X127636266Y-130303600D01*
X128449066Y-131077695D02*
X128178133Y-130690647D01*
X127984609Y-131077695D02*
X127984609Y-130264895D01*
X128294247Y-130264895D01*
X128371657Y-130303600D01*
X128410361Y-130342304D01*
X128449066Y-130419714D01*
X128449066Y-130535828D01*
X128410361Y-130613238D01*
X128371657Y-130651942D01*
X128294247Y-130690647D01*
X127984609Y-130690647D01*
X128797409Y-131000285D02*
X128836114Y-131038990D01*
X128797409Y-131077695D01*
X128758704Y-131038990D01*
X128797409Y-131000285D01*
X128797409Y-131077695D01*
X129455390Y-130651942D02*
X129571504Y-130690647D01*
X129610209Y-130729352D01*
X129648914Y-130806761D01*
X129648914Y-130922876D01*
X129610209Y-131000285D01*
X129571504Y-131038990D01*
X129494095Y-131077695D01*
X129184457Y-131077695D01*
X129184457Y-130264895D01*
X129455390Y-130264895D01*
X129532800Y-130303600D01*
X129571504Y-130342304D01*
X129610209Y-130419714D01*
X129610209Y-130497123D01*
X129571504Y-130574533D01*
X129532800Y-130613238D01*
X129455390Y-130651942D01*
X129184457Y-130651942D01*
X129881142Y-130264895D02*
X130345600Y-130264895D01*
X130113371Y-131077695D02*
X130113371Y-130264895D01*
X130616533Y-131077695D02*
X130616533Y-130264895D01*
X131080990Y-131077695D01*
X131080990Y-130264895D01*
X146613158Y-75973685D02*
X146968947Y-76329474D01*
X146558421Y-76356842D01*
X146640526Y-76438947D01*
X146667895Y-76521053D01*
X146667895Y-76575789D01*
X146640526Y-76657895D01*
X146503684Y-76794737D01*
X146421579Y-76822105D01*
X146366842Y-76822105D01*
X146284737Y-76794737D01*
X146120527Y-76630526D01*
X146093158Y-76548421D01*
X146093158Y-76493684D01*
X147133157Y-76493684D02*
X146750000Y-77259999D01*
X147516315Y-76876842D01*
X147653157Y-77013684D02*
X148008946Y-77369473D01*
X147598420Y-77396841D01*
X147680525Y-77478946D01*
X147707894Y-77561052D01*
X147707894Y-77615788D01*
X147680525Y-77697894D01*
X147543683Y-77834736D01*
X147461578Y-77862104D01*
X147406841Y-77862104D01*
X147324736Y-77834736D01*
X147160526Y-77670525D01*
X147133157Y-77588420D01*
X147133157Y-77533683D01*
X148177369Y-76002632D02*
X148232106Y-76112106D01*
X148368948Y-76248948D01*
X148451053Y-76276316D01*
X148505790Y-76276316D01*
X148587895Y-76248948D01*
X148642632Y-76194211D01*
X148670000Y-76112106D01*
X148670000Y-76057369D01*
X148642632Y-75975264D01*
X148560527Y-75838422D01*
X148533158Y-75756316D01*
X148533158Y-75701580D01*
X148560527Y-75619474D01*
X148615264Y-75564738D01*
X148697369Y-75537369D01*
X148752106Y-75537369D01*
X148834211Y-75564738D01*
X148971053Y-75701580D01*
X149025790Y-75811053D01*
X149244737Y-75975264D02*
X148806842Y-76686842D01*
X149326842Y-76385790D01*
X149025790Y-76905789D01*
X149737368Y-76467895D01*
X149764736Y-77535262D02*
X149710000Y-77535262D01*
X149600526Y-77480525D01*
X149545789Y-77425789D01*
X149491052Y-77316315D01*
X149491052Y-77206841D01*
X149518421Y-77124736D01*
X149600526Y-76987894D01*
X149682631Y-76905789D01*
X149819473Y-76823684D01*
X149901578Y-76796316D01*
X150011052Y-76796316D01*
X150120525Y-76851052D01*
X150175262Y-76905789D01*
X150229999Y-77015263D01*
X150229999Y-77070000D01*
X150229999Y-78109999D02*
X149956315Y-77836315D01*
X150531051Y-77261578D01*
X150421578Y-78301577D02*
X150996314Y-77726841D01*
X150749999Y-78629998D02*
X150832104Y-78055262D01*
X151324735Y-78055262D02*
X150667893Y-78055262D01*
X152478073Y-76211337D02*
X152450705Y-76129232D01*
X152368600Y-76047127D01*
X152259126Y-75992390D01*
X152149653Y-75992390D01*
X152067547Y-76019758D01*
X151930705Y-76101863D01*
X151848600Y-76183969D01*
X151766495Y-76320811D01*
X151739127Y-76402916D01*
X151739127Y-76512389D01*
X151793863Y-76621863D01*
X151848600Y-76676600D01*
X151958074Y-76731337D01*
X152012811Y-76731337D01*
X152204389Y-76539758D01*
X152094916Y-76430284D01*
X152204389Y-77032389D02*
X152779126Y-76457653D01*
X152532810Y-77360810D01*
X153107546Y-76786073D01*
X152806494Y-77634494D02*
X153381230Y-77059757D01*
X153518072Y-77196599D01*
X153572809Y-77306073D01*
X153572809Y-77415546D01*
X153545441Y-77497652D01*
X153463336Y-77634494D01*
X153381230Y-77716599D01*
X153244388Y-77798704D01*
X153162283Y-77826072D01*
X153052810Y-77826072D01*
X152943336Y-77771336D01*
X152806494Y-77634494D01*
D11*
X153699474Y-76364737D02*
X153754211Y-76474211D01*
X153891053Y-76611053D01*
X153973158Y-76638421D01*
X154027895Y-76638421D01*
X154110000Y-76611053D01*
X154164737Y-76556316D01*
X154192106Y-76474211D01*
X154192106Y-76419474D01*
X154164737Y-76337369D01*
X154082632Y-76200527D01*
X154055264Y-76118422D01*
X154055264Y-76063685D01*
X154082632Y-75981580D01*
X154137369Y-75926843D01*
X154219474Y-75899474D01*
X154274211Y-75899474D01*
X154356316Y-75926843D01*
X154493158Y-76063685D01*
X154547895Y-76173158D01*
X154766842Y-76337369D02*
X154328948Y-77048947D01*
X154848947Y-76747895D01*
X154547895Y-77267894D01*
X155259473Y-76830000D01*
X154903684Y-77623683D02*
X155478420Y-77048947D01*
X155615262Y-77185789D01*
X155669999Y-77295263D01*
X155669999Y-77404736D01*
X155642631Y-77486841D01*
X155560525Y-77623683D01*
X155478420Y-77705789D01*
X155341578Y-77787894D01*
X155259473Y-77815262D01*
X155150000Y-77815262D01*
X155040526Y-77760525D01*
X154903684Y-77623683D01*
X155478420Y-78198420D02*
X156053157Y-77623683D01*
X156436314Y-78006841D02*
X156545788Y-78116315D01*
X156573156Y-78198420D01*
X156573156Y-78307893D01*
X156491051Y-78444735D01*
X156299472Y-78636314D01*
X156162630Y-78718419D01*
X156053157Y-78718419D01*
X155971051Y-78691051D01*
X155861578Y-78581577D01*
X155834209Y-78499472D01*
X155834209Y-78389999D01*
X155916315Y-78253157D01*
X156107893Y-78061578D01*
X156244735Y-77979473D01*
X156354209Y-77979473D01*
X156436314Y-78006841D01*
D10*
X156994864Y-76565063D02*
X157076969Y-76099800D01*
X156666443Y-76236642D02*
X157241179Y-75661906D01*
X157460126Y-75880853D01*
X157487495Y-75962958D01*
X157487495Y-76017695D01*
X157460126Y-76099800D01*
X157378021Y-76181906D01*
X157295916Y-76209274D01*
X157241179Y-76209274D01*
X157159074Y-76181906D01*
X156940127Y-75962958D01*
X157542232Y-76510326D02*
X157733810Y-76701905D01*
X157514863Y-77085063D02*
X157241179Y-76811379D01*
X157815916Y-76236642D01*
X158089600Y-76510326D01*
X157761179Y-77276641D02*
X157815916Y-77386115D01*
X157952758Y-77522957D01*
X158034863Y-77550325D01*
X158089600Y-77550325D01*
X158171705Y-77522957D01*
X158226441Y-77468220D01*
X158253810Y-77386115D01*
X158253810Y-77331378D01*
X158226441Y-77249273D01*
X158144336Y-77112431D01*
X158116968Y-77030326D01*
X158116968Y-76975589D01*
X158144336Y-76893484D01*
X158199073Y-76838747D01*
X158281178Y-76811379D01*
X158335915Y-76811379D01*
X158418020Y-76838747D01*
X158554862Y-76975589D01*
X158609599Y-77085063D01*
X158609599Y-77577694D02*
X158801178Y-77769273D01*
X158582231Y-78152430D02*
X158308547Y-77878746D01*
X158883283Y-77304010D01*
X159156967Y-77577694D01*
X159321177Y-77741904D02*
X159649598Y-78070325D01*
X158910651Y-78480851D02*
X159485388Y-77906115D01*
X160174273Y-76135137D02*
X160146905Y-76053032D01*
X160064800Y-75970927D01*
X159955326Y-75916190D01*
X159845853Y-75916190D01*
X159763747Y-75943558D01*
X159626905Y-76025663D01*
X159544800Y-76107769D01*
X159462695Y-76244611D01*
X159435327Y-76326716D01*
X159435327Y-76436189D01*
X159490063Y-76545663D01*
X159544800Y-76600400D01*
X159654274Y-76655137D01*
X159709011Y-76655137D01*
X159900589Y-76463558D01*
X159791116Y-76354084D01*
X159900589Y-76956189D02*
X160475326Y-76381453D01*
X160229010Y-77284610D01*
X160803746Y-76709873D01*
X160502694Y-77558294D02*
X161077430Y-76983557D01*
X161214272Y-77120399D01*
X161269009Y-77229873D01*
X161269009Y-77339346D01*
X161241641Y-77421452D01*
X161159536Y-77558294D01*
X161077430Y-77640399D01*
X160940588Y-77722504D01*
X160858483Y-77749872D01*
X160749010Y-77749872D01*
X160639536Y-77695136D01*
X160502694Y-77558294D01*
X162252853Y-76318748D02*
X162307590Y-76428221D01*
X162307590Y-76482958D01*
X162280221Y-76565063D01*
X162198116Y-76647168D01*
X162116011Y-76674537D01*
X162061274Y-76674537D01*
X161979169Y-76647168D01*
X161760222Y-76428221D01*
X162334958Y-75853485D01*
X162526537Y-76045064D01*
X162553905Y-76127169D01*
X162553905Y-76181906D01*
X162526537Y-76264011D01*
X162471800Y-76318748D01*
X162389695Y-76346116D01*
X162334958Y-76346116D01*
X162252853Y-76318748D01*
X162061274Y-76127169D01*
X163019168Y-76537695D02*
X163128641Y-76647168D01*
X163156010Y-76729274D01*
X163156010Y-76838747D01*
X163073905Y-76975589D01*
X162882326Y-77167168D01*
X162745484Y-77249273D01*
X162636010Y-77249273D01*
X162553905Y-77221905D01*
X162444432Y-77112431D01*
X162417063Y-77030326D01*
X162417063Y-76920852D01*
X162499168Y-76784010D01*
X162690747Y-76592432D01*
X162827589Y-76510326D01*
X162937063Y-76510326D01*
X163019168Y-76537695D01*
X163621273Y-77139799D02*
X163730746Y-77249273D01*
X163758115Y-77331378D01*
X163758115Y-77440852D01*
X163676009Y-77577694D01*
X163484431Y-77769273D01*
X163347589Y-77851378D01*
X163238115Y-77851378D01*
X163156010Y-77824009D01*
X163046536Y-77714536D01*
X163019168Y-77632431D01*
X163019168Y-77522957D01*
X163101273Y-77386115D01*
X163292852Y-77194536D01*
X163429694Y-77112431D01*
X163539167Y-77112431D01*
X163621273Y-77139799D01*
X164031799Y-77550325D02*
X164360219Y-77878746D01*
X163621273Y-78289272D02*
X164196009Y-77714536D01*
X164880958Y-75910285D02*
X165236747Y-76266074D01*
X164826221Y-76293442D01*
X164908326Y-76375547D01*
X164935695Y-76457653D01*
X164935695Y-76512389D01*
X164908326Y-76594495D01*
X164771484Y-76731337D01*
X164689379Y-76758705D01*
X164634642Y-76758705D01*
X164552537Y-76731337D01*
X164388327Y-76567126D01*
X164360958Y-76485021D01*
X164360958Y-76430284D01*
X165400957Y-76430284D02*
X165017800Y-77196599D01*
X165784115Y-76813442D01*
X165920957Y-76950284D02*
X166276746Y-77306073D01*
X165866220Y-77333441D01*
X165948325Y-77415546D01*
X165975694Y-77497652D01*
X165975694Y-77552388D01*
X165948325Y-77634494D01*
X165811483Y-77771336D01*
X165729378Y-77798704D01*
X165674641Y-77798704D01*
X165592536Y-77771336D01*
X165428326Y-77607125D01*
X165400957Y-77525020D01*
X165400957Y-77470283D01*
X161553676Y-87972295D02*
X162056838Y-87972295D01*
X161785904Y-88281933D01*
X161902019Y-88281933D01*
X161979428Y-88320638D01*
X162018133Y-88359342D01*
X162056838Y-88436752D01*
X162056838Y-88630276D01*
X162018133Y-88707685D01*
X161979428Y-88746390D01*
X161902019Y-88785095D01*
X161669790Y-88785095D01*
X161592380Y-88746390D01*
X161553676Y-88707685D01*
X162289066Y-87972295D02*
X162560000Y-88785095D01*
X162830933Y-87972295D01*
X163024457Y-87972295D02*
X163527619Y-87972295D01*
X163256685Y-88281933D01*
X163372800Y-88281933D01*
X163450209Y-88320638D01*
X163488914Y-88359342D01*
X163527619Y-88436752D01*
X163527619Y-88630276D01*
X163488914Y-88707685D01*
X163450209Y-88746390D01*
X163372800Y-88785095D01*
X163140571Y-88785095D01*
X163063161Y-88746390D01*
X163024457Y-88707685D01*
X161864523Y-90576400D02*
X161787114Y-90537695D01*
X161671000Y-90537695D01*
X161554885Y-90576400D01*
X161477476Y-90653809D01*
X161438771Y-90731219D01*
X161400066Y-90886038D01*
X161400066Y-91002152D01*
X161438771Y-91156971D01*
X161477476Y-91234380D01*
X161554885Y-91311790D01*
X161671000Y-91350495D01*
X161748409Y-91350495D01*
X161864523Y-91311790D01*
X161903228Y-91273085D01*
X161903228Y-91002152D01*
X161748409Y-91002152D01*
X162251571Y-91350495D02*
X162251571Y-90537695D01*
X162716028Y-91350495D01*
X162716028Y-90537695D01*
X163103076Y-91350495D02*
X163103076Y-90537695D01*
X163296600Y-90537695D01*
X163412714Y-90576400D01*
X163490123Y-90653809D01*
X163528828Y-90731219D01*
X163567533Y-90886038D01*
X163567533Y-91002152D01*
X163528828Y-91156971D01*
X163490123Y-91234380D01*
X163412714Y-91311790D01*
X163296600Y-91350495D01*
X163103076Y-91350495D01*
X161611733Y-93941295D02*
X161611733Y-93128495D01*
X161921371Y-93128495D01*
X161998780Y-93167200D01*
X162037485Y-93205904D01*
X162076190Y-93283314D01*
X162076190Y-93399428D01*
X162037485Y-93476838D01*
X161998780Y-93515542D01*
X161921371Y-93554247D01*
X161611733Y-93554247D01*
X162385828Y-93709066D02*
X162772876Y-93709066D01*
X162308419Y-93941295D02*
X162579352Y-93128495D01*
X162850285Y-93941295D01*
X163276038Y-93128495D02*
X163353447Y-93128495D01*
X163430857Y-93167200D01*
X163469561Y-93205904D01*
X163508266Y-93283314D01*
X163546971Y-93438133D01*
X163546971Y-93631657D01*
X163508266Y-93786476D01*
X163469561Y-93863885D01*
X163430857Y-93902590D01*
X163353447Y-93941295D01*
X163276038Y-93941295D01*
X163198628Y-93902590D01*
X163159923Y-93863885D01*
X163121219Y-93786476D01*
X163082514Y-93631657D01*
X163082514Y-93438133D01*
X163121219Y-93283314D01*
X163159923Y-93205904D01*
X163198628Y-93167200D01*
X163276038Y-93128495D01*
X161637133Y-96455895D02*
X161637133Y-95643095D01*
X161946771Y-95643095D01*
X162024180Y-95681800D01*
X162062885Y-95720504D01*
X162101590Y-95797914D01*
X162101590Y-95914028D01*
X162062885Y-95991438D01*
X162024180Y-96030142D01*
X161946771Y-96068847D01*
X161637133Y-96068847D01*
X162411228Y-96223666D02*
X162798276Y-96223666D01*
X162333819Y-96455895D02*
X162604752Y-95643095D01*
X162875685Y-96455895D01*
X163572371Y-96455895D02*
X163107914Y-96455895D01*
X163340142Y-96455895D02*
X163340142Y-95643095D01*
X163262733Y-95759209D01*
X163185323Y-95836619D01*
X163107914Y-95875323D01*
X161611733Y-98995895D02*
X161611733Y-98183095D01*
X161921371Y-98183095D01*
X161998780Y-98221800D01*
X162037485Y-98260504D01*
X162076190Y-98337914D01*
X162076190Y-98454028D01*
X162037485Y-98531438D01*
X161998780Y-98570142D01*
X161921371Y-98608847D01*
X161611733Y-98608847D01*
X162385828Y-98763666D02*
X162772876Y-98763666D01*
X162308419Y-98995895D02*
X162579352Y-98183095D01*
X162850285Y-98995895D01*
X163237333Y-98531438D02*
X163159923Y-98492733D01*
X163121219Y-98454028D01*
X163082514Y-98376619D01*
X163082514Y-98337914D01*
X163121219Y-98260504D01*
X163159923Y-98221800D01*
X163237333Y-98183095D01*
X163392152Y-98183095D01*
X163469561Y-98221800D01*
X163508266Y-98260504D01*
X163546971Y-98337914D01*
X163546971Y-98376619D01*
X163508266Y-98454028D01*
X163469561Y-98492733D01*
X163392152Y-98531438D01*
X163237333Y-98531438D01*
X163159923Y-98570142D01*
X163121219Y-98608847D01*
X163082514Y-98686257D01*
X163082514Y-98841076D01*
X163121219Y-98918485D01*
X163159923Y-98957190D01*
X163237333Y-98995895D01*
X163392152Y-98995895D01*
X163469561Y-98957190D01*
X163508266Y-98918485D01*
X163546971Y-98841076D01*
X163546971Y-98686257D01*
X163508266Y-98608847D01*
X163469561Y-98570142D01*
X163392152Y-98531438D01*
X158464190Y-101697695D02*
X158464190Y-100884895D01*
X158773828Y-100884895D01*
X158851238Y-100923600D01*
X158889942Y-100962304D01*
X158928647Y-101039714D01*
X158928647Y-101155828D01*
X158889942Y-101233238D01*
X158851238Y-101271942D01*
X158773828Y-101310647D01*
X158464190Y-101310647D01*
X159238285Y-101465466D02*
X159625333Y-101465466D01*
X159160876Y-101697695D02*
X159431809Y-100884895D01*
X159702742Y-101697695D01*
X160012380Y-101697695D02*
X160167200Y-101697695D01*
X160244609Y-101658990D01*
X160283314Y-101620285D01*
X160360723Y-101504171D01*
X160399428Y-101349352D01*
X160399428Y-101039714D01*
X160360723Y-100962304D01*
X160322019Y-100923600D01*
X160244609Y-100884895D01*
X160089790Y-100884895D01*
X160012380Y-100923600D01*
X159973676Y-100962304D01*
X159934971Y-101039714D01*
X159934971Y-101233238D01*
X159973676Y-101310647D01*
X160012380Y-101349352D01*
X160089790Y-101388057D01*
X160244609Y-101388057D01*
X160322019Y-101349352D01*
X160360723Y-101310647D01*
X160399428Y-101233238D01*
X161328342Y-100846190D02*
X160631657Y-101891219D01*
X161870209Y-101271942D02*
X161986323Y-101310647D01*
X162025028Y-101349352D01*
X162063733Y-101426761D01*
X162063733Y-101542876D01*
X162025028Y-101620285D01*
X161986323Y-101658990D01*
X161908914Y-101697695D01*
X161599276Y-101697695D01*
X161599276Y-100884895D01*
X161870209Y-100884895D01*
X161947619Y-100923600D01*
X161986323Y-100962304D01*
X162025028Y-101039714D01*
X162025028Y-101117123D01*
X161986323Y-101194533D01*
X161947619Y-101233238D01*
X161870209Y-101271942D01*
X161599276Y-101271942D01*
X162295961Y-100884895D02*
X162760419Y-100884895D01*
X162528190Y-101697695D02*
X162528190Y-100884895D01*
X163031352Y-101697695D02*
X163031352Y-100884895D01*
X163495809Y-101697695D01*
X163495809Y-100884895D01*
X156863142Y-104101295D02*
X156863142Y-103288495D01*
X157172780Y-103288495D01*
X157250190Y-103327200D01*
X157288895Y-103365904D01*
X157327600Y-103443314D01*
X157327600Y-103559428D01*
X157288895Y-103636838D01*
X157250190Y-103675542D01*
X157172780Y-103714247D01*
X156863142Y-103714247D01*
X157946876Y-103675542D02*
X158062990Y-103714247D01*
X158101695Y-103752952D01*
X158140400Y-103830361D01*
X158140400Y-103946476D01*
X158101695Y-104023885D01*
X158062990Y-104062590D01*
X157985580Y-104101295D01*
X157675942Y-104101295D01*
X157675942Y-103288495D01*
X157946876Y-103288495D01*
X158024285Y-103327200D01*
X158062990Y-103365904D01*
X158101695Y-103443314D01*
X158101695Y-103520723D01*
X158062990Y-103598133D01*
X158024285Y-103636838D01*
X157946876Y-103675542D01*
X157675942Y-103675542D01*
X158914495Y-104101295D02*
X158450038Y-104101295D01*
X158682266Y-104101295D02*
X158682266Y-103288495D01*
X158604857Y-103404609D01*
X158527447Y-103482019D01*
X158450038Y-103520723D01*
X159224133Y-103365904D02*
X159262838Y-103327200D01*
X159340247Y-103288495D01*
X159533771Y-103288495D01*
X159611180Y-103327200D01*
X159649885Y-103365904D01*
X159688590Y-103443314D01*
X159688590Y-103520723D01*
X159649885Y-103636838D01*
X159185428Y-104101295D01*
X159688590Y-104101295D01*
X160617504Y-103249790D02*
X159920819Y-104294819D01*
X161275485Y-104101295D02*
X160888438Y-104101295D01*
X160888438Y-103288495D01*
X161546419Y-103675542D02*
X161817352Y-103675542D01*
X161933466Y-104101295D02*
X161546419Y-104101295D01*
X161546419Y-103288495D01*
X161933466Y-103288495D01*
X162281809Y-104101295D02*
X162281809Y-103288495D01*
X162475333Y-103288495D01*
X162591447Y-103327200D01*
X162668857Y-103404609D01*
X162707561Y-103482019D01*
X162746266Y-103636838D01*
X162746266Y-103752952D01*
X162707561Y-103907771D01*
X162668857Y-103985180D01*
X162591447Y-104062590D01*
X162475333Y-104101295D01*
X162281809Y-104101295D01*
X163055904Y-103365904D02*
X163094609Y-103327200D01*
X163172019Y-103288495D01*
X163365542Y-103288495D01*
X163442952Y-103327200D01*
X163481657Y-103365904D01*
X163520361Y-103443314D01*
X163520361Y-103520723D01*
X163481657Y-103636838D01*
X163017200Y-104101295D01*
X163520361Y-104101295D01*
X160760228Y-106459866D02*
X161147276Y-106459866D01*
X160682819Y-106692095D02*
X160953752Y-105879295D01*
X161224685Y-106692095D01*
X161495619Y-106692095D02*
X161495619Y-105879295D01*
X161689142Y-105879295D01*
X161805257Y-105918000D01*
X161882666Y-105995409D01*
X161921371Y-106072819D01*
X161960076Y-106227638D01*
X161960076Y-106343752D01*
X161921371Y-106498571D01*
X161882666Y-106575980D01*
X161805257Y-106653390D01*
X161689142Y-106692095D01*
X161495619Y-106692095D01*
X162772876Y-106614685D02*
X162734171Y-106653390D01*
X162618057Y-106692095D01*
X162540647Y-106692095D01*
X162424533Y-106653390D01*
X162347123Y-106575980D01*
X162308419Y-106498571D01*
X162269714Y-106343752D01*
X162269714Y-106227638D01*
X162308419Y-106072819D01*
X162347123Y-105995409D01*
X162424533Y-105918000D01*
X162540647Y-105879295D01*
X162618057Y-105879295D01*
X162734171Y-105918000D01*
X162772876Y-105956704D01*
X163043809Y-105879295D02*
X163546971Y-105879295D01*
X163276038Y-106188933D01*
X163392152Y-106188933D01*
X163469561Y-106227638D01*
X163508266Y-106266342D01*
X163546971Y-106343752D01*
X163546971Y-106537276D01*
X163508266Y-106614685D01*
X163469561Y-106653390D01*
X163392152Y-106692095D01*
X163159923Y-106692095D01*
X163082514Y-106653390D01*
X163043809Y-106614685D01*
X160785628Y-108974466D02*
X161172676Y-108974466D01*
X160708219Y-109206695D02*
X160979152Y-108393895D01*
X161250085Y-109206695D01*
X161521019Y-109206695D02*
X161521019Y-108393895D01*
X161714542Y-108393895D01*
X161830657Y-108432600D01*
X161908066Y-108510009D01*
X161946771Y-108587419D01*
X161985476Y-108742238D01*
X161985476Y-108858352D01*
X161946771Y-109013171D01*
X161908066Y-109090580D01*
X161830657Y-109167990D01*
X161714542Y-109206695D01*
X161521019Y-109206695D01*
X162798276Y-109129285D02*
X162759571Y-109167990D01*
X162643457Y-109206695D01*
X162566047Y-109206695D01*
X162449933Y-109167990D01*
X162372523Y-109090580D01*
X162333819Y-109013171D01*
X162295114Y-108858352D01*
X162295114Y-108742238D01*
X162333819Y-108587419D01*
X162372523Y-108510009D01*
X162449933Y-108432600D01*
X162566047Y-108393895D01*
X162643457Y-108393895D01*
X162759571Y-108432600D01*
X162798276Y-108471304D01*
X163107914Y-108471304D02*
X163146619Y-108432600D01*
X163224028Y-108393895D01*
X163417552Y-108393895D01*
X163494961Y-108432600D01*
X163533666Y-108471304D01*
X163572371Y-108548714D01*
X163572371Y-108626123D01*
X163533666Y-108742238D01*
X163069209Y-109206695D01*
X163572371Y-109206695D01*
X160811028Y-111412866D02*
X161198076Y-111412866D01*
X160733619Y-111645095D02*
X161004552Y-110832295D01*
X161275485Y-111645095D01*
X161546419Y-111645095D02*
X161546419Y-110832295D01*
X161739942Y-110832295D01*
X161856057Y-110871000D01*
X161933466Y-110948409D01*
X161972171Y-111025819D01*
X162010876Y-111180638D01*
X162010876Y-111296752D01*
X161972171Y-111451571D01*
X161933466Y-111528980D01*
X161856057Y-111606390D01*
X161739942Y-111645095D01*
X161546419Y-111645095D01*
X162823676Y-111567685D02*
X162784971Y-111606390D01*
X162668857Y-111645095D01*
X162591447Y-111645095D01*
X162475333Y-111606390D01*
X162397923Y-111528980D01*
X162359219Y-111451571D01*
X162320514Y-111296752D01*
X162320514Y-111180638D01*
X162359219Y-111025819D01*
X162397923Y-110948409D01*
X162475333Y-110871000D01*
X162591447Y-110832295D01*
X162668857Y-110832295D01*
X162784971Y-110871000D01*
X162823676Y-110909704D01*
X163597771Y-111645095D02*
X163133314Y-111645095D01*
X163365542Y-111645095D02*
X163365542Y-110832295D01*
X163288133Y-110948409D01*
X163210723Y-111025819D01*
X163133314Y-111064523D01*
X120030723Y-128397000D02*
X119953314Y-128358295D01*
X119837200Y-128358295D01*
X119721085Y-128397000D01*
X119643676Y-128474409D01*
X119604971Y-128551819D01*
X119566266Y-128706638D01*
X119566266Y-128822752D01*
X119604971Y-128977571D01*
X119643676Y-129054980D01*
X119721085Y-129132390D01*
X119837200Y-129171095D01*
X119914609Y-129171095D01*
X120030723Y-129132390D01*
X120069428Y-129093685D01*
X120069428Y-128822752D01*
X119914609Y-128822752D01*
X120417771Y-129171095D02*
X120417771Y-128358295D01*
X120882228Y-129171095D01*
X120882228Y-128358295D01*
X121269276Y-129171095D02*
X121269276Y-128358295D01*
X121462800Y-128358295D01*
X121578914Y-128397000D01*
X121656323Y-128474409D01*
X121695028Y-128551819D01*
X121733733Y-128706638D01*
X121733733Y-128822752D01*
X121695028Y-128977571D01*
X121656323Y-129054980D01*
X121578914Y-129132390D01*
X121462800Y-129171095D01*
X121269276Y-129171095D01*
X119637628Y-126373466D02*
X120024676Y-126373466D01*
X119560219Y-126605695D02*
X119831152Y-125792895D01*
X120102085Y-126605695D01*
X120373019Y-126605695D02*
X120373019Y-125792895D01*
X120566542Y-125792895D01*
X120682657Y-125831600D01*
X120760066Y-125909009D01*
X120798771Y-125986419D01*
X120837476Y-126141238D01*
X120837476Y-126257352D01*
X120798771Y-126412171D01*
X120760066Y-126489580D01*
X120682657Y-126566990D01*
X120566542Y-126605695D01*
X120373019Y-126605695D01*
X121650276Y-126528285D02*
X121611571Y-126566990D01*
X121495457Y-126605695D01*
X121418047Y-126605695D01*
X121301933Y-126566990D01*
X121224523Y-126489580D01*
X121185819Y-126412171D01*
X121147114Y-126257352D01*
X121147114Y-126141238D01*
X121185819Y-125986419D01*
X121224523Y-125909009D01*
X121301933Y-125831600D01*
X121418047Y-125792895D01*
X121495457Y-125792895D01*
X121611571Y-125831600D01*
X121650276Y-125870304D01*
X122346961Y-126063828D02*
X122346961Y-126605695D01*
X122153438Y-125754190D02*
X121959914Y-126334761D01*
X122463076Y-126334761D01*
X119663028Y-123858866D02*
X120050076Y-123858866D01*
X119585619Y-124091095D02*
X119856552Y-123278295D01*
X120127485Y-124091095D01*
X120398419Y-124091095D02*
X120398419Y-123278295D01*
X120591942Y-123278295D01*
X120708057Y-123317000D01*
X120785466Y-123394409D01*
X120824171Y-123471819D01*
X120862876Y-123626638D01*
X120862876Y-123742752D01*
X120824171Y-123897571D01*
X120785466Y-123974980D01*
X120708057Y-124052390D01*
X120591942Y-124091095D01*
X120398419Y-124091095D01*
X121675676Y-124013685D02*
X121636971Y-124052390D01*
X121520857Y-124091095D01*
X121443447Y-124091095D01*
X121327333Y-124052390D01*
X121249923Y-123974980D01*
X121211219Y-123897571D01*
X121172514Y-123742752D01*
X121172514Y-123626638D01*
X121211219Y-123471819D01*
X121249923Y-123394409D01*
X121327333Y-123317000D01*
X121443447Y-123278295D01*
X121520857Y-123278295D01*
X121636971Y-123317000D01*
X121675676Y-123355704D01*
X122411066Y-123278295D02*
X122024019Y-123278295D01*
X121985314Y-123665342D01*
X122024019Y-123626638D01*
X122101428Y-123587933D01*
X122294952Y-123587933D01*
X122372361Y-123626638D01*
X122411066Y-123665342D01*
X122449771Y-123742752D01*
X122449771Y-123936276D01*
X122411066Y-124013685D01*
X122372361Y-124052390D01*
X122294952Y-124091095D01*
X122101428Y-124091095D01*
X122024019Y-124052390D01*
X121985314Y-124013685D01*
X119643676Y-121525695D02*
X119643676Y-120712895D01*
X119953314Y-120712895D01*
X120030723Y-120751600D01*
X120069428Y-120790304D01*
X120108133Y-120867714D01*
X120108133Y-120983828D01*
X120069428Y-121061238D01*
X120030723Y-121099942D01*
X119953314Y-121138647D01*
X119643676Y-121138647D01*
X120727409Y-121099942D02*
X120843523Y-121138647D01*
X120882228Y-121177352D01*
X120920933Y-121254761D01*
X120920933Y-121370876D01*
X120882228Y-121448285D01*
X120843523Y-121486990D01*
X120766114Y-121525695D01*
X120456476Y-121525695D01*
X120456476Y-120712895D01*
X120727409Y-120712895D01*
X120804819Y-120751600D01*
X120843523Y-120790304D01*
X120882228Y-120867714D01*
X120882228Y-120945123D01*
X120843523Y-121022533D01*
X120804819Y-121061238D01*
X120727409Y-121099942D01*
X120456476Y-121099942D01*
X121656323Y-120712895D02*
X121269276Y-120712895D01*
X121230571Y-121099942D01*
X121269276Y-121061238D01*
X121346685Y-121022533D01*
X121540209Y-121022533D01*
X121617619Y-121061238D01*
X121656323Y-121099942D01*
X121695028Y-121177352D01*
X121695028Y-121370876D01*
X121656323Y-121448285D01*
X121617619Y-121486990D01*
X121540209Y-121525695D01*
X121346685Y-121525695D01*
X121269276Y-121486990D01*
X121230571Y-121448285D01*
X119592876Y-118896190D02*
X119708990Y-118934895D01*
X119902514Y-118934895D01*
X119979923Y-118896190D01*
X120018628Y-118857485D01*
X120057333Y-118780076D01*
X120057333Y-118702666D01*
X120018628Y-118625257D01*
X119979923Y-118586552D01*
X119902514Y-118547847D01*
X119747695Y-118509142D01*
X119670285Y-118470438D01*
X119631580Y-118431733D01*
X119592876Y-118354323D01*
X119592876Y-118276914D01*
X119631580Y-118199504D01*
X119670285Y-118160800D01*
X119747695Y-118122095D01*
X119941219Y-118122095D01*
X120057333Y-118160800D01*
X120405676Y-118934895D02*
X120405676Y-118122095D01*
X120715314Y-118122095D01*
X120792723Y-118160800D01*
X120831428Y-118199504D01*
X120870133Y-118276914D01*
X120870133Y-118393028D01*
X120831428Y-118470438D01*
X120792723Y-118509142D01*
X120715314Y-118547847D01*
X120405676Y-118547847D01*
X121218476Y-118934895D02*
X121218476Y-118122095D01*
X121605523Y-118857485D02*
X121644228Y-118896190D01*
X121605523Y-118934895D01*
X121566819Y-118896190D01*
X121605523Y-118857485D01*
X121605523Y-118934895D01*
X121992571Y-118934895D02*
X121992571Y-118122095D01*
X122457028Y-118934895D01*
X122457028Y-118122095D01*
X122805371Y-118896190D02*
X122921485Y-118934895D01*
X123115009Y-118934895D01*
X123192419Y-118896190D01*
X123231123Y-118857485D01*
X123269828Y-118780076D01*
X123269828Y-118702666D01*
X123231123Y-118625257D01*
X123192419Y-118586552D01*
X123115009Y-118547847D01*
X122960190Y-118509142D01*
X122882780Y-118470438D01*
X122844076Y-118431733D01*
X122805371Y-118354323D01*
X122805371Y-118276914D01*
X122844076Y-118199504D01*
X122882780Y-118160800D01*
X122960190Y-118122095D01*
X123153714Y-118122095D01*
X123269828Y-118160800D01*
X123579466Y-118896190D02*
X123695580Y-118934895D01*
X123889104Y-118934895D01*
X123966514Y-118896190D01*
X124005219Y-118857485D01*
X124043923Y-118780076D01*
X124043923Y-118702666D01*
X124005219Y-118625257D01*
X123966514Y-118586552D01*
X123889104Y-118547847D01*
X123734285Y-118509142D01*
X123656876Y-118470438D01*
X123618171Y-118431733D01*
X123579466Y-118354323D01*
X123579466Y-118276914D01*
X123618171Y-118199504D01*
X123656876Y-118160800D01*
X123734285Y-118122095D01*
X123927809Y-118122095D01*
X124043923Y-118160800D01*
X119574733Y-116356190D02*
X119690847Y-116394895D01*
X119884371Y-116394895D01*
X119961780Y-116356190D01*
X120000485Y-116317485D01*
X120039190Y-116240076D01*
X120039190Y-116162666D01*
X120000485Y-116085257D01*
X119961780Y-116046552D01*
X119884371Y-116007847D01*
X119729552Y-115969142D01*
X119652142Y-115930438D01*
X119613438Y-115891733D01*
X119574733Y-115814323D01*
X119574733Y-115736914D01*
X119613438Y-115659504D01*
X119652142Y-115620800D01*
X119729552Y-115582095D01*
X119923076Y-115582095D01*
X120039190Y-115620800D01*
X120387533Y-116394895D02*
X120387533Y-115582095D01*
X120697171Y-115582095D01*
X120774580Y-115620800D01*
X120813285Y-115659504D01*
X120851990Y-115736914D01*
X120851990Y-115853028D01*
X120813285Y-115930438D01*
X120774580Y-115969142D01*
X120697171Y-116007847D01*
X120387533Y-116007847D01*
X121200333Y-116394895D02*
X121200333Y-115582095D01*
X121587380Y-116317485D02*
X121626085Y-116356190D01*
X121587380Y-116394895D01*
X121548676Y-116356190D01*
X121587380Y-116317485D01*
X121587380Y-116394895D01*
X122438885Y-116317485D02*
X122400180Y-116356190D01*
X122284066Y-116394895D01*
X122206657Y-116394895D01*
X122090542Y-116356190D01*
X122013133Y-116278780D01*
X121974428Y-116201371D01*
X121935723Y-116046552D01*
X121935723Y-115930438D01*
X121974428Y-115775619D01*
X122013133Y-115698209D01*
X122090542Y-115620800D01*
X122206657Y-115582095D01*
X122284066Y-115582095D01*
X122400180Y-115620800D01*
X122438885Y-115659504D01*
X123174276Y-116394895D02*
X122787228Y-116394895D01*
X122787228Y-115582095D01*
X123445209Y-116394895D02*
X123445209Y-115582095D01*
X123909666Y-116394895D02*
X123561323Y-115930438D01*
X123909666Y-115582095D02*
X123445209Y-116046552D01*
X119601342Y-113816190D02*
X119717457Y-113854895D01*
X119910980Y-113854895D01*
X119988390Y-113816190D01*
X120027095Y-113777485D01*
X120065800Y-113700076D01*
X120065800Y-113622666D01*
X120027095Y-113545257D01*
X119988390Y-113506552D01*
X119910980Y-113467847D01*
X119756161Y-113429142D01*
X119678752Y-113390438D01*
X119640047Y-113351733D01*
X119601342Y-113274323D01*
X119601342Y-113196914D01*
X119640047Y-113119504D01*
X119678752Y-113080800D01*
X119756161Y-113042095D01*
X119949685Y-113042095D01*
X120065800Y-113080800D01*
X120414142Y-113854895D02*
X120414142Y-113042095D01*
X120723780Y-113042095D01*
X120801190Y-113080800D01*
X120839895Y-113119504D01*
X120878600Y-113196914D01*
X120878600Y-113313028D01*
X120839895Y-113390438D01*
X120801190Y-113429142D01*
X120723780Y-113467847D01*
X120414142Y-113467847D01*
X121226942Y-113854895D02*
X121226942Y-113042095D01*
X121613990Y-113777485D02*
X121652695Y-113816190D01*
X121613990Y-113854895D01*
X121575285Y-113816190D01*
X121613990Y-113777485D01*
X121613990Y-113854895D01*
X122001038Y-113854895D02*
X122001038Y-113042095D01*
X122271971Y-113622666D01*
X122542904Y-113042095D01*
X122542904Y-113854895D01*
X123084771Y-113042095D02*
X123239590Y-113042095D01*
X123317000Y-113080800D01*
X123394409Y-113158209D01*
X123433114Y-113313028D01*
X123433114Y-113583961D01*
X123394409Y-113738780D01*
X123317000Y-113816190D01*
X123239590Y-113854895D01*
X123084771Y-113854895D01*
X123007361Y-113816190D01*
X122929952Y-113738780D01*
X122891247Y-113583961D01*
X122891247Y-113313028D01*
X122929952Y-113158209D01*
X123007361Y-113080800D01*
X123084771Y-113042095D01*
X123742752Y-113816190D02*
X123858866Y-113854895D01*
X124052390Y-113854895D01*
X124129800Y-113816190D01*
X124168504Y-113777485D01*
X124207209Y-113700076D01*
X124207209Y-113622666D01*
X124168504Y-113545257D01*
X124129800Y-113506552D01*
X124052390Y-113467847D01*
X123897571Y-113429142D01*
X123820161Y-113390438D01*
X123781457Y-113351733D01*
X123742752Y-113274323D01*
X123742752Y-113196914D01*
X123781457Y-113119504D01*
X123820161Y-113080800D01*
X123897571Y-113042095D01*
X124091095Y-113042095D01*
X124207209Y-113080800D01*
X124555552Y-113854895D02*
X124555552Y-113042095D01*
X119601342Y-111352390D02*
X119717457Y-111391095D01*
X119910980Y-111391095D01*
X119988390Y-111352390D01*
X120027095Y-111313685D01*
X120065800Y-111236276D01*
X120065800Y-111158866D01*
X120027095Y-111081457D01*
X119988390Y-111042752D01*
X119910980Y-111004047D01*
X119756161Y-110965342D01*
X119678752Y-110926638D01*
X119640047Y-110887933D01*
X119601342Y-110810523D01*
X119601342Y-110733114D01*
X119640047Y-110655704D01*
X119678752Y-110617000D01*
X119756161Y-110578295D01*
X119949685Y-110578295D01*
X120065800Y-110617000D01*
X120414142Y-111391095D02*
X120414142Y-110578295D01*
X120723780Y-110578295D01*
X120801190Y-110617000D01*
X120839895Y-110655704D01*
X120878600Y-110733114D01*
X120878600Y-110849228D01*
X120839895Y-110926638D01*
X120801190Y-110965342D01*
X120723780Y-111004047D01*
X120414142Y-111004047D01*
X121226942Y-111391095D02*
X121226942Y-110578295D01*
X121613990Y-111313685D02*
X121652695Y-111352390D01*
X121613990Y-111391095D01*
X121575285Y-111352390D01*
X121613990Y-111313685D01*
X121613990Y-111391095D01*
X122001038Y-111391095D02*
X122001038Y-110578295D01*
X122271971Y-111158866D01*
X122542904Y-110578295D01*
X122542904Y-111391095D01*
X122929952Y-111391095D02*
X122929952Y-110578295D01*
X123278295Y-111352390D02*
X123394409Y-111391095D01*
X123587933Y-111391095D01*
X123665342Y-111352390D01*
X123704047Y-111313685D01*
X123742752Y-111236276D01*
X123742752Y-111158866D01*
X123704047Y-111081457D01*
X123665342Y-111042752D01*
X123587933Y-111004047D01*
X123433114Y-110965342D01*
X123355704Y-110926638D01*
X123317000Y-110887933D01*
X123278295Y-110810523D01*
X123278295Y-110733114D01*
X123317000Y-110655704D01*
X123355704Y-110617000D01*
X123433114Y-110578295D01*
X123626638Y-110578295D01*
X123742752Y-110617000D01*
X124245914Y-110578295D02*
X124400733Y-110578295D01*
X124478142Y-110617000D01*
X124555552Y-110694409D01*
X124594257Y-110849228D01*
X124594257Y-111120161D01*
X124555552Y-111274980D01*
X124478142Y-111352390D01*
X124400733Y-111391095D01*
X124245914Y-111391095D01*
X124168504Y-111352390D01*
X124091095Y-111274980D01*
X124052390Y-111120161D01*
X124052390Y-110849228D01*
X124091095Y-110694409D01*
X124168504Y-110617000D01*
X124245914Y-110578295D01*
X120056123Y-108051600D02*
X119978714Y-108012895D01*
X119862600Y-108012895D01*
X119746485Y-108051600D01*
X119669076Y-108129009D01*
X119630371Y-108206419D01*
X119591666Y-108361238D01*
X119591666Y-108477352D01*
X119630371Y-108632171D01*
X119669076Y-108709580D01*
X119746485Y-108786990D01*
X119862600Y-108825695D01*
X119940009Y-108825695D01*
X120056123Y-108786990D01*
X120094828Y-108748285D01*
X120094828Y-108477352D01*
X119940009Y-108477352D01*
X120443171Y-108825695D02*
X120443171Y-108012895D01*
X120907628Y-108825695D01*
X120907628Y-108012895D01*
X121294676Y-108825695D02*
X121294676Y-108012895D01*
X121488200Y-108012895D01*
X121604314Y-108051600D01*
X121681723Y-108129009D01*
X121720428Y-108206419D01*
X121759133Y-108361238D01*
X121759133Y-108477352D01*
X121720428Y-108632171D01*
X121681723Y-108709580D01*
X121604314Y-108786990D01*
X121488200Y-108825695D01*
X121294676Y-108825695D01*
X119592876Y-105523695D02*
X120096038Y-105523695D01*
X119825104Y-105833333D01*
X119941219Y-105833333D01*
X120018628Y-105872038D01*
X120057333Y-105910742D01*
X120096038Y-105988152D01*
X120096038Y-106181676D01*
X120057333Y-106259085D01*
X120018628Y-106297790D01*
X119941219Y-106336495D01*
X119708990Y-106336495D01*
X119631580Y-106297790D01*
X119592876Y-106259085D01*
X120328266Y-105523695D02*
X120599200Y-106336495D01*
X120870133Y-105523695D01*
X121063657Y-105523695D02*
X121566819Y-105523695D01*
X121295885Y-105833333D01*
X121412000Y-105833333D01*
X121489409Y-105872038D01*
X121528114Y-105910742D01*
X121566819Y-105988152D01*
X121566819Y-106181676D01*
X121528114Y-106259085D01*
X121489409Y-106297790D01*
X121412000Y-106336495D01*
X121179771Y-106336495D01*
X121102361Y-106297790D01*
X121063657Y-106259085D01*
X119542076Y-79158495D02*
X120045238Y-79158495D01*
X119774304Y-79468133D01*
X119890419Y-79468133D01*
X119967828Y-79506838D01*
X120006533Y-79545542D01*
X120045238Y-79622952D01*
X120045238Y-79816476D01*
X120006533Y-79893885D01*
X119967828Y-79932590D01*
X119890419Y-79971295D01*
X119658190Y-79971295D01*
X119580780Y-79932590D01*
X119542076Y-79893885D01*
X120277466Y-79158495D02*
X120548400Y-79971295D01*
X120819333Y-79158495D01*
X121012857Y-79158495D02*
X121516019Y-79158495D01*
X121245085Y-79468133D01*
X121361200Y-79468133D01*
X121438609Y-79506838D01*
X121477314Y-79545542D01*
X121516019Y-79622952D01*
X121516019Y-79816476D01*
X121477314Y-79893885D01*
X121438609Y-79932590D01*
X121361200Y-79971295D01*
X121128971Y-79971295D01*
X121051561Y-79932590D01*
X121012857Y-79893885D01*
X119579571Y-81444495D02*
X119579571Y-82102476D01*
X119618276Y-82179885D01*
X119656980Y-82218590D01*
X119734390Y-82257295D01*
X119889209Y-82257295D01*
X119966619Y-82218590D01*
X120005323Y-82179885D01*
X120044028Y-82102476D01*
X120044028Y-81444495D01*
X120392371Y-82025066D02*
X120779419Y-82025066D01*
X120314961Y-82257295D02*
X120585895Y-81444495D01*
X120856828Y-82257295D01*
X121592219Y-82257295D02*
X121321285Y-81870247D01*
X121127761Y-82257295D02*
X121127761Y-81444495D01*
X121437400Y-81444495D01*
X121514809Y-81483200D01*
X121553514Y-81521904D01*
X121592219Y-81599314D01*
X121592219Y-81715428D01*
X121553514Y-81792838D01*
X121514809Y-81831542D01*
X121437400Y-81870247D01*
X121127761Y-81870247D01*
X121824447Y-81444495D02*
X122288904Y-81444495D01*
X122056676Y-82257295D02*
X122056676Y-81444495D01*
X122985590Y-82257295D02*
X122521133Y-82257295D01*
X122753361Y-82257295D02*
X122753361Y-81444495D01*
X122675952Y-81560609D01*
X122598542Y-81638019D01*
X122521133Y-81676723D01*
X123333933Y-82179885D02*
X123372638Y-82218590D01*
X123333933Y-82257295D01*
X123295228Y-82218590D01*
X123333933Y-82179885D01*
X123333933Y-82257295D01*
X124185438Y-82257295D02*
X123914504Y-81870247D01*
X123720980Y-82257295D02*
X123720980Y-81444495D01*
X124030619Y-81444495D01*
X124108028Y-81483200D01*
X124146733Y-81521904D01*
X124185438Y-81599314D01*
X124185438Y-81715428D01*
X124146733Y-81792838D01*
X124108028Y-81831542D01*
X124030619Y-81870247D01*
X123720980Y-81870247D01*
X124456371Y-81444495D02*
X124998238Y-82257295D01*
X124998238Y-81444495D02*
X124456371Y-82257295D01*
X119574733Y-83959095D02*
X119574733Y-84617076D01*
X119613438Y-84694485D01*
X119652142Y-84733190D01*
X119729552Y-84771895D01*
X119884371Y-84771895D01*
X119961780Y-84733190D01*
X120000485Y-84694485D01*
X120039190Y-84617076D01*
X120039190Y-83959095D01*
X120387533Y-84539666D02*
X120774580Y-84539666D01*
X120310123Y-84771895D02*
X120581057Y-83959095D01*
X120851990Y-84771895D01*
X121587380Y-84771895D02*
X121316447Y-84384847D01*
X121122923Y-84771895D02*
X121122923Y-83959095D01*
X121432561Y-83959095D01*
X121509971Y-83997800D01*
X121548676Y-84036504D01*
X121587380Y-84113914D01*
X121587380Y-84230028D01*
X121548676Y-84307438D01*
X121509971Y-84346142D01*
X121432561Y-84384847D01*
X121122923Y-84384847D01*
X121819609Y-83959095D02*
X122284066Y-83959095D01*
X122051838Y-84771895D02*
X122051838Y-83959095D01*
X122980752Y-84771895D02*
X122516295Y-84771895D01*
X122748523Y-84771895D02*
X122748523Y-83959095D01*
X122671114Y-84075209D01*
X122593704Y-84152619D01*
X122516295Y-84191323D01*
X123329095Y-84694485D02*
X123367800Y-84733190D01*
X123329095Y-84771895D01*
X123290390Y-84733190D01*
X123329095Y-84694485D01*
X123329095Y-84771895D01*
X123600028Y-83959095D02*
X124064485Y-83959095D01*
X123832257Y-84771895D02*
X123832257Y-83959095D01*
X124258009Y-83959095D02*
X124799876Y-84771895D01*
X124799876Y-83959095D02*
X124258009Y-84771895D01*
X120030723Y-86563200D02*
X119953314Y-86524495D01*
X119837200Y-86524495D01*
X119721085Y-86563200D01*
X119643676Y-86640609D01*
X119604971Y-86718019D01*
X119566266Y-86872838D01*
X119566266Y-86988952D01*
X119604971Y-87143771D01*
X119643676Y-87221180D01*
X119721085Y-87298590D01*
X119837200Y-87337295D01*
X119914609Y-87337295D01*
X120030723Y-87298590D01*
X120069428Y-87259885D01*
X120069428Y-86988952D01*
X119914609Y-86988952D01*
X120417771Y-87337295D02*
X120417771Y-86524495D01*
X120882228Y-87337295D01*
X120882228Y-86524495D01*
X121269276Y-87337295D02*
X121269276Y-86524495D01*
X121462800Y-86524495D01*
X121578914Y-86563200D01*
X121656323Y-86640609D01*
X121695028Y-86718019D01*
X121733733Y-86872838D01*
X121733733Y-86988952D01*
X121695028Y-87143771D01*
X121656323Y-87221180D01*
X121578914Y-87298590D01*
X121462800Y-87337295D01*
X121269276Y-87337295D01*
X119567476Y-89089895D02*
X120070638Y-89089895D01*
X119799704Y-89399533D01*
X119915819Y-89399533D01*
X119993228Y-89438238D01*
X120031933Y-89476942D01*
X120070638Y-89554352D01*
X120070638Y-89747876D01*
X120031933Y-89825285D01*
X119993228Y-89863990D01*
X119915819Y-89902695D01*
X119683590Y-89902695D01*
X119606180Y-89863990D01*
X119567476Y-89825285D01*
X120302866Y-89089895D02*
X120573800Y-89902695D01*
X120844733Y-89089895D01*
X121038257Y-89089895D02*
X121541419Y-89089895D01*
X121270485Y-89399533D01*
X121386600Y-89399533D01*
X121464009Y-89438238D01*
X121502714Y-89476942D01*
X121541419Y-89554352D01*
X121541419Y-89747876D01*
X121502714Y-89825285D01*
X121464009Y-89863990D01*
X121386600Y-89902695D01*
X121154371Y-89902695D01*
X121076961Y-89863990D01*
X121038257Y-89825285D01*
X119579571Y-91579095D02*
X119579571Y-92237076D01*
X119618276Y-92314485D01*
X119656980Y-92353190D01*
X119734390Y-92391895D01*
X119889209Y-92391895D01*
X119966619Y-92353190D01*
X120005323Y-92314485D01*
X120044028Y-92237076D01*
X120044028Y-91579095D01*
X120392371Y-92159666D02*
X120779419Y-92159666D01*
X120314961Y-92391895D02*
X120585895Y-91579095D01*
X120856828Y-92391895D01*
X121592219Y-92391895D02*
X121321285Y-92004847D01*
X121127761Y-92391895D02*
X121127761Y-91579095D01*
X121437400Y-91579095D01*
X121514809Y-91617800D01*
X121553514Y-91656504D01*
X121592219Y-91733914D01*
X121592219Y-91850028D01*
X121553514Y-91927438D01*
X121514809Y-91966142D01*
X121437400Y-92004847D01*
X121127761Y-92004847D01*
X121824447Y-91579095D02*
X122288904Y-91579095D01*
X122056676Y-92391895D02*
X122056676Y-91579095D01*
X122521133Y-91656504D02*
X122559838Y-91617800D01*
X122637247Y-91579095D01*
X122830771Y-91579095D01*
X122908180Y-91617800D01*
X122946885Y-91656504D01*
X122985590Y-91733914D01*
X122985590Y-91811323D01*
X122946885Y-91927438D01*
X122482428Y-92391895D01*
X122985590Y-92391895D01*
X123333933Y-92314485D02*
X123372638Y-92353190D01*
X123333933Y-92391895D01*
X123295228Y-92353190D01*
X123333933Y-92314485D01*
X123333933Y-92391895D01*
X124185438Y-92391895D02*
X123914504Y-92004847D01*
X123720980Y-92391895D02*
X123720980Y-91579095D01*
X124030619Y-91579095D01*
X124108028Y-91617800D01*
X124146733Y-91656504D01*
X124185438Y-91733914D01*
X124185438Y-91850028D01*
X124146733Y-91927438D01*
X124108028Y-91966142D01*
X124030619Y-92004847D01*
X123720980Y-92004847D01*
X124456371Y-91579095D02*
X124998238Y-92391895D01*
X124998238Y-91579095D02*
X124456371Y-92391895D01*
X119574733Y-94119095D02*
X119574733Y-94777076D01*
X119613438Y-94854485D01*
X119652142Y-94893190D01*
X119729552Y-94931895D01*
X119884371Y-94931895D01*
X119961780Y-94893190D01*
X120000485Y-94854485D01*
X120039190Y-94777076D01*
X120039190Y-94119095D01*
X120387533Y-94699666D02*
X120774580Y-94699666D01*
X120310123Y-94931895D02*
X120581057Y-94119095D01*
X120851990Y-94931895D01*
X121587380Y-94931895D02*
X121316447Y-94544847D01*
X121122923Y-94931895D02*
X121122923Y-94119095D01*
X121432561Y-94119095D01*
X121509971Y-94157800D01*
X121548676Y-94196504D01*
X121587380Y-94273914D01*
X121587380Y-94390028D01*
X121548676Y-94467438D01*
X121509971Y-94506142D01*
X121432561Y-94544847D01*
X121122923Y-94544847D01*
X121819609Y-94119095D02*
X122284066Y-94119095D01*
X122051838Y-94931895D02*
X122051838Y-94119095D01*
X122516295Y-94196504D02*
X122555000Y-94157800D01*
X122632409Y-94119095D01*
X122825933Y-94119095D01*
X122903342Y-94157800D01*
X122942047Y-94196504D01*
X122980752Y-94273914D01*
X122980752Y-94351323D01*
X122942047Y-94467438D01*
X122477590Y-94931895D01*
X122980752Y-94931895D01*
X123329095Y-94854485D02*
X123367800Y-94893190D01*
X123329095Y-94931895D01*
X123290390Y-94893190D01*
X123329095Y-94854485D01*
X123329095Y-94931895D01*
X123600028Y-94119095D02*
X124064485Y-94119095D01*
X123832257Y-94931895D02*
X123832257Y-94119095D01*
X124258009Y-94119095D02*
X124799876Y-94931895D01*
X124799876Y-94119095D02*
X124258009Y-94931895D01*
X120056123Y-96672400D02*
X119978714Y-96633695D01*
X119862600Y-96633695D01*
X119746485Y-96672400D01*
X119669076Y-96749809D01*
X119630371Y-96827219D01*
X119591666Y-96982038D01*
X119591666Y-97098152D01*
X119630371Y-97252971D01*
X119669076Y-97330380D01*
X119746485Y-97407790D01*
X119862600Y-97446495D01*
X119940009Y-97446495D01*
X120056123Y-97407790D01*
X120094828Y-97369085D01*
X120094828Y-97098152D01*
X119940009Y-97098152D01*
X120443171Y-97446495D02*
X120443171Y-96633695D01*
X120907628Y-97446495D01*
X120907628Y-96633695D01*
X121294676Y-97446495D02*
X121294676Y-96633695D01*
X121488200Y-96633695D01*
X121604314Y-96672400D01*
X121681723Y-96749809D01*
X121720428Y-96827219D01*
X121759133Y-96982038D01*
X121759133Y-97098152D01*
X121720428Y-97252971D01*
X121681723Y-97330380D01*
X121604314Y-97407790D01*
X121488200Y-97446495D01*
X121294676Y-97446495D01*
X119612228Y-99922390D02*
X119728342Y-99961095D01*
X119921866Y-99961095D01*
X119999276Y-99922390D01*
X120037980Y-99883685D01*
X120076685Y-99806276D01*
X120076685Y-99728866D01*
X120037980Y-99651457D01*
X119999276Y-99612752D01*
X119921866Y-99574047D01*
X119767047Y-99535342D01*
X119689638Y-99496638D01*
X119650933Y-99457933D01*
X119612228Y-99380523D01*
X119612228Y-99303114D01*
X119650933Y-99225704D01*
X119689638Y-99187000D01*
X119767047Y-99148295D01*
X119960571Y-99148295D01*
X120076685Y-99187000D01*
X120425028Y-99961095D02*
X120425028Y-99148295D01*
X120618552Y-99148295D01*
X120734666Y-99187000D01*
X120812076Y-99264409D01*
X120850780Y-99341819D01*
X120889485Y-99496638D01*
X120889485Y-99612752D01*
X120850780Y-99767571D01*
X120812076Y-99844980D01*
X120734666Y-99922390D01*
X120618552Y-99961095D01*
X120425028Y-99961095D01*
X121199123Y-99728866D02*
X121586171Y-99728866D01*
X121121714Y-99961095D02*
X121392647Y-99148295D01*
X121663580Y-99961095D01*
X119606180Y-102436990D02*
X119722295Y-102475695D01*
X119915819Y-102475695D01*
X119993228Y-102436990D01*
X120031933Y-102398285D01*
X120070638Y-102320876D01*
X120070638Y-102243466D01*
X120031933Y-102166057D01*
X119993228Y-102127352D01*
X119915819Y-102088647D01*
X119761000Y-102049942D01*
X119683590Y-102011238D01*
X119644885Y-101972533D01*
X119606180Y-101895123D01*
X119606180Y-101817714D01*
X119644885Y-101740304D01*
X119683590Y-101701600D01*
X119761000Y-101662895D01*
X119954523Y-101662895D01*
X120070638Y-101701600D01*
X120883438Y-102398285D02*
X120844733Y-102436990D01*
X120728619Y-102475695D01*
X120651209Y-102475695D01*
X120535095Y-102436990D01*
X120457685Y-102359580D01*
X120418980Y-102282171D01*
X120380276Y-102127352D01*
X120380276Y-102011238D01*
X120418980Y-101856419D01*
X120457685Y-101779009D01*
X120535095Y-101701600D01*
X120651209Y-101662895D01*
X120728619Y-101662895D01*
X120844733Y-101701600D01*
X120883438Y-101740304D01*
X121618828Y-102475695D02*
X121231780Y-102475695D01*
X121231780Y-101662895D01*
D12*
X133465000Y-118627064D02*
X133465000Y-118172936D01*
X134935000Y-118627064D02*
X134935000Y-118172936D01*
X129231248Y-81675000D02*
X129753752Y-81675000D01*
X129231248Y-83145000D02*
X129753752Y-83145000D01*
X132165000Y-123440000D02*
X132165000Y-123470000D01*
X132165000Y-129900000D02*
X132165000Y-129870000D01*
X125705000Y-129900000D02*
X125705000Y-129870000D01*
X125705000Y-123470000D02*
X125705000Y-123440000D01*
X132165000Y-125370000D02*
X132165000Y-127970000D01*
X125705000Y-123440000D02*
X132165000Y-123440000D01*
X125705000Y-125370000D02*
X125705000Y-127970000D01*
X125705000Y-129900000D02*
X132165000Y-129900000D01*
X127275000Y-118587064D02*
X127275000Y-118132936D01*
X128745000Y-118587064D02*
X128745000Y-118132936D01*
X132885000Y-118182936D02*
X132885000Y-118637064D01*
X131415000Y-118182936D02*
X131415000Y-118637064D01*
X130775000Y-118122936D02*
X130775000Y-118577064D01*
X129305000Y-118122936D02*
X129305000Y-118577064D01*
X125265000Y-118601252D02*
X125265000Y-118078748D01*
X126735000Y-118601252D02*
X126735000Y-118078748D01*
X133171600Y-109834200D02*
X133171600Y-108684200D01*
X134571600Y-109834200D02*
X133171600Y-109834200D01*
X148971600Y-109834200D02*
X148971600Y-108684200D01*
X147571600Y-109834200D02*
X148971600Y-109834200D01*
X148971600Y-94534200D02*
X148971600Y-95684200D01*
X147571600Y-94534200D02*
X148971600Y-94534200D01*
X133121600Y-95884200D02*
X133121600Y-94484200D01*
X133121600Y-94484200D02*
X134271600Y-94484200D01*
D13*
G36*
X136821600Y-99434200D02*
G01*
X134571600Y-99434200D01*
X134571600Y-97184200D01*
X136821600Y-97184200D01*
X136821600Y-99434200D01*
G37*
X136821600Y-99434200D02*
X134571600Y-99434200D01*
X134571600Y-97184200D01*
X136821600Y-97184200D01*
X136821600Y-99434200D01*
G36*
X148321600Y-93934200D02*
G01*
X147821600Y-93934200D01*
X147821600Y-93434200D01*
X148321600Y-93434200D01*
X148321600Y-93934200D01*
G37*
X148321600Y-93934200D02*
X147821600Y-93934200D01*
X147821600Y-93434200D01*
X148321600Y-93434200D01*
X148321600Y-93934200D01*
D12*
X129325000Y-95322936D02*
X129325000Y-95777064D01*
X127855000Y-95322936D02*
X127855000Y-95777064D01*
X125825000Y-95312936D02*
X125825000Y-95767064D01*
X127295000Y-95312936D02*
X127295000Y-95767064D01*
X154675000Y-95727064D02*
X154675000Y-95272936D01*
X156145000Y-95727064D02*
X156145000Y-95272936D01*
X152645000Y-95737064D02*
X152645000Y-95282936D01*
X154115000Y-95737064D02*
X154115000Y-95282936D01*
D14*
X149760000Y-132745000D02*
X149760000Y-134025000D01*
X149760000Y-134025000D02*
X159340000Y-134025000D01*
X159340000Y-134025000D02*
X159340000Y-132745000D01*
X149760000Y-128775000D02*
X149760000Y-130025000D01*
X159340000Y-128775000D02*
X159340000Y-130025000D01*
D12*
X149934600Y-114573552D02*
X149934600Y-114051048D01*
X148464600Y-114573552D02*
X148464600Y-114051048D01*
D15*
X117281200Y-127426400D02*
X118805200Y-127426400D01*
X119313200Y-129458400D02*
X118805200Y-129966400D01*
X116773200Y-129458400D02*
X116773200Y-127934400D01*
X117281200Y-129966400D02*
X116773200Y-129458400D01*
X116773200Y-127934400D02*
X117281200Y-127426400D01*
X118805200Y-129966400D02*
X117281200Y-129966400D01*
X118805200Y-127426400D02*
X119313200Y-127934400D01*
X119313200Y-127934400D02*
X119313200Y-129458400D01*
X117281200Y-124886400D02*
X118805200Y-124886400D01*
X119313200Y-126918400D02*
X118805200Y-127426400D01*
X116773200Y-126918400D02*
X116773200Y-125394400D01*
X117281200Y-127426400D02*
X116773200Y-126918400D01*
X116773200Y-125394400D02*
X117281200Y-124886400D01*
X118805200Y-127426400D02*
X117281200Y-127426400D01*
X118805200Y-124886400D02*
X119313200Y-125394400D01*
X119313200Y-125394400D02*
X119313200Y-126918400D01*
X117281200Y-122346400D02*
X118805200Y-122346400D01*
X119313200Y-124378400D02*
X118805200Y-124886400D01*
X116773200Y-124378400D02*
X116773200Y-122854400D01*
X117281200Y-124886400D02*
X116773200Y-124378400D01*
X116773200Y-122854400D02*
X117281200Y-122346400D01*
X118805200Y-124886400D02*
X117281200Y-124886400D01*
X118805200Y-122346400D02*
X119313200Y-122854400D01*
X119313200Y-122854400D02*
X119313200Y-124378400D01*
X117281200Y-119806400D02*
X118805200Y-119806400D01*
X119313200Y-121838400D02*
X118805200Y-122346400D01*
X116773200Y-121838400D02*
X116773200Y-120314400D01*
X117281200Y-122346400D02*
X116773200Y-121838400D01*
X116773200Y-120314400D02*
X117281200Y-119806400D01*
X118805200Y-122346400D02*
X117281200Y-122346400D01*
X118805200Y-119806400D02*
X119313200Y-120314400D01*
X119313200Y-120314400D02*
X119313200Y-121838400D01*
X117281200Y-117266400D02*
X118805200Y-117266400D01*
X119313200Y-119298400D02*
X118805200Y-119806400D01*
X116773200Y-119298400D02*
X116773200Y-117774400D01*
X117281200Y-119806400D02*
X116773200Y-119298400D01*
X116773200Y-117774400D02*
X117281200Y-117266400D01*
X118805200Y-119806400D02*
X117281200Y-119806400D01*
X118805200Y-117266400D02*
X119313200Y-117774400D01*
X119313200Y-117774400D02*
X119313200Y-119298400D01*
X117281200Y-114726400D02*
X118805200Y-114726400D01*
X119313200Y-116758400D02*
X118805200Y-117266400D01*
X116773200Y-116758400D02*
X116773200Y-115234400D01*
X117281200Y-117266400D02*
X116773200Y-116758400D01*
X116773200Y-115234400D02*
X117281200Y-114726400D01*
X118805200Y-117266400D02*
X117281200Y-117266400D01*
X118805200Y-114726400D02*
X119313200Y-115234400D01*
X119313200Y-115234400D02*
X119313200Y-116758400D01*
X117281200Y-109646400D02*
X118805200Y-109646400D01*
X119313200Y-110154400D02*
X119313200Y-111678400D01*
X118805200Y-112186400D02*
X117281200Y-112186400D01*
X116773200Y-111678400D02*
X116773200Y-110154400D01*
X118805200Y-109646400D02*
X119313200Y-110154400D01*
X119313200Y-111678400D02*
X118805200Y-112186400D01*
X117281200Y-112186400D02*
X116773200Y-111678400D01*
X116773200Y-110154400D02*
X117281200Y-109646400D01*
X117281200Y-109646400D02*
X116773200Y-109138400D01*
X116773200Y-107614400D02*
X117281200Y-107106400D01*
X119313200Y-109138400D02*
X118805200Y-109646400D01*
X118805200Y-109646400D02*
X117281200Y-109646400D01*
X119313200Y-107614400D02*
X119313200Y-109138400D01*
X117281200Y-107106400D02*
X118805200Y-107106400D01*
X118805200Y-107106400D02*
X119313200Y-107614400D01*
X116773200Y-109138400D02*
X116773200Y-107614400D01*
X117281200Y-107106400D02*
X116773200Y-106598400D01*
X116773200Y-105074400D02*
X117281200Y-104566400D01*
X119313200Y-106598400D02*
X118805200Y-107106400D01*
X118805200Y-107106400D02*
X117281200Y-107106400D01*
X119313200Y-105074400D02*
X119313200Y-106598400D01*
X117281200Y-104566400D02*
X118805200Y-104566400D01*
X118805200Y-104566400D02*
X119313200Y-105074400D01*
X116773200Y-106598400D02*
X116773200Y-105074400D01*
X117281200Y-114726400D02*
X116773200Y-114218400D01*
X116773200Y-112694400D02*
X117281200Y-112186400D01*
X119313200Y-114218400D02*
X118805200Y-114726400D01*
X118805200Y-114726400D02*
X117281200Y-114726400D01*
X119313200Y-112694400D02*
X119313200Y-114218400D01*
X117281200Y-112186400D02*
X118805200Y-112186400D01*
X118805200Y-112186400D02*
X119313200Y-112694400D01*
X116773200Y-114218400D02*
X116773200Y-112694400D01*
X117271800Y-100858000D02*
X118795800Y-100858000D01*
X119303800Y-102890000D02*
X118795800Y-103398000D01*
X116763800Y-102890000D02*
X116763800Y-101366000D01*
X117271800Y-103398000D02*
X116763800Y-102890000D01*
X116763800Y-101366000D02*
X117271800Y-100858000D01*
X118795800Y-103398000D02*
X117271800Y-103398000D01*
X118795800Y-100858000D02*
X119303800Y-101366000D01*
X119303800Y-101366000D02*
X119303800Y-102890000D01*
X117271800Y-98318000D02*
X118795800Y-98318000D01*
X119303800Y-100350000D02*
X118795800Y-100858000D01*
X116763800Y-100350000D02*
X116763800Y-98826000D01*
X117271800Y-100858000D02*
X116763800Y-100350000D01*
X116763800Y-98826000D02*
X117271800Y-98318000D01*
X118795800Y-100858000D02*
X117271800Y-100858000D01*
X118795800Y-98318000D02*
X119303800Y-98826000D01*
X119303800Y-98826000D02*
X119303800Y-100350000D01*
X117271800Y-95778000D02*
X118795800Y-95778000D01*
X119303800Y-97810000D02*
X118795800Y-98318000D01*
X116763800Y-97810000D02*
X116763800Y-96286000D01*
X117271800Y-98318000D02*
X116763800Y-97810000D01*
X116763800Y-96286000D02*
X117271800Y-95778000D01*
X118795800Y-98318000D02*
X117271800Y-98318000D01*
X118795800Y-95778000D02*
X119303800Y-96286000D01*
X119303800Y-96286000D02*
X119303800Y-97810000D01*
X117271800Y-93238000D02*
X118795800Y-93238000D01*
X119303800Y-95270000D02*
X118795800Y-95778000D01*
X116763800Y-95270000D02*
X116763800Y-93746000D01*
X117271800Y-95778000D02*
X116763800Y-95270000D01*
X116763800Y-93746000D02*
X117271800Y-93238000D01*
X118795800Y-95778000D02*
X117271800Y-95778000D01*
X118795800Y-93238000D02*
X119303800Y-93746000D01*
X119303800Y-93746000D02*
X119303800Y-95270000D01*
X117271800Y-90698000D02*
X118795800Y-90698000D01*
X119303800Y-92730000D02*
X118795800Y-93238000D01*
X116763800Y-92730000D02*
X116763800Y-91206000D01*
X117271800Y-93238000D02*
X116763800Y-92730000D01*
X116763800Y-91206000D02*
X117271800Y-90698000D01*
X118795800Y-93238000D02*
X117271800Y-93238000D01*
X118795800Y-90698000D02*
X119303800Y-91206000D01*
X119303800Y-91206000D02*
X119303800Y-92730000D01*
X117271800Y-88158000D02*
X118795800Y-88158000D01*
X119303800Y-90190000D02*
X118795800Y-90698000D01*
X116763800Y-90190000D02*
X116763800Y-88666000D01*
X117271800Y-90698000D02*
X116763800Y-90190000D01*
X116763800Y-88666000D02*
X117271800Y-88158000D01*
X118795800Y-90698000D02*
X117271800Y-90698000D01*
X118795800Y-88158000D02*
X119303800Y-88666000D01*
X119303800Y-88666000D02*
X119303800Y-90190000D01*
X117271800Y-83078000D02*
X118795800Y-83078000D01*
X119303800Y-83586000D02*
X119303800Y-85110000D01*
X118795800Y-85618000D02*
X117271800Y-85618000D01*
X116763800Y-85110000D02*
X116763800Y-83586000D01*
X118795800Y-83078000D02*
X119303800Y-83586000D01*
X119303800Y-85110000D02*
X118795800Y-85618000D01*
X117271800Y-85618000D02*
X116763800Y-85110000D01*
X116763800Y-83586000D02*
X117271800Y-83078000D01*
X117271800Y-83078000D02*
X116763800Y-82570000D01*
X116763800Y-81046000D02*
X117271800Y-80538000D01*
X119303800Y-82570000D02*
X118795800Y-83078000D01*
X118795800Y-83078000D02*
X117271800Y-83078000D01*
X119303800Y-81046000D02*
X119303800Y-82570000D01*
X117271800Y-80538000D02*
X118795800Y-80538000D01*
X118795800Y-80538000D02*
X119303800Y-81046000D01*
X116763800Y-82570000D02*
X116763800Y-81046000D01*
X117271800Y-80538000D02*
X116763800Y-80030000D01*
X116763800Y-78506000D02*
X117271800Y-77998000D01*
X119303800Y-80030000D02*
X118795800Y-80538000D01*
X118795800Y-80538000D02*
X117271800Y-80538000D01*
X119303800Y-78506000D02*
X119303800Y-80030000D01*
X117271800Y-77998000D02*
X118795800Y-77998000D01*
X118795800Y-77998000D02*
X119303800Y-78506000D01*
X116763800Y-80030000D02*
X116763800Y-78506000D01*
X117271800Y-88158000D02*
X116763800Y-87650000D01*
X116763800Y-86126000D02*
X117271800Y-85618000D01*
X119303800Y-87650000D02*
X118795800Y-88158000D01*
X118795800Y-88158000D02*
X117271800Y-88158000D01*
X119303800Y-86126000D02*
X119303800Y-87650000D01*
X117271800Y-85618000D02*
X118795800Y-85618000D01*
X118795800Y-85618000D02*
X119303800Y-86126000D01*
X116763800Y-87650000D02*
X116763800Y-86126000D01*
X163850000Y-75260200D02*
X163850000Y-73736200D01*
X165882000Y-73228200D02*
X166390000Y-73736200D01*
X165882000Y-75768200D02*
X164358000Y-75768200D01*
X166390000Y-75260200D02*
X165882000Y-75768200D01*
X164358000Y-75768200D02*
X163850000Y-75260200D01*
X166390000Y-73736200D02*
X166390000Y-75260200D01*
X163850000Y-73736200D02*
X164358000Y-73228200D01*
X164358000Y-73228200D02*
X165882000Y-73228200D01*
X161310000Y-75260200D02*
X161310000Y-73736200D01*
X163342000Y-73228200D02*
X163850000Y-73736200D01*
X163342000Y-75768200D02*
X161818000Y-75768200D01*
X163850000Y-75260200D02*
X163342000Y-75768200D01*
X161818000Y-75768200D02*
X161310000Y-75260200D01*
X163850000Y-73736200D02*
X163850000Y-75260200D01*
X161310000Y-73736200D02*
X161818000Y-73228200D01*
X161818000Y-73228200D02*
X163342000Y-73228200D01*
X158770000Y-75260200D02*
X158770000Y-73736200D01*
X160802000Y-73228200D02*
X161310000Y-73736200D01*
X160802000Y-75768200D02*
X159278000Y-75768200D01*
X161310000Y-75260200D02*
X160802000Y-75768200D01*
X159278000Y-75768200D02*
X158770000Y-75260200D01*
X161310000Y-73736200D02*
X161310000Y-75260200D01*
X158770000Y-73736200D02*
X159278000Y-73228200D01*
X159278000Y-73228200D02*
X160802000Y-73228200D01*
X156230000Y-75260200D02*
X156230000Y-73736200D01*
X158262000Y-73228200D02*
X158770000Y-73736200D01*
X158262000Y-75768200D02*
X156738000Y-75768200D01*
X158770000Y-75260200D02*
X158262000Y-75768200D01*
X156738000Y-75768200D02*
X156230000Y-75260200D01*
X158770000Y-73736200D02*
X158770000Y-75260200D01*
X156230000Y-73736200D02*
X156738000Y-73228200D01*
X156738000Y-73228200D02*
X158262000Y-73228200D01*
X151150000Y-75260200D02*
X151150000Y-73736200D01*
X151658000Y-73228200D02*
X153182000Y-73228200D01*
X153690000Y-73736200D02*
X153690000Y-75260200D01*
X153182000Y-75768200D02*
X151658000Y-75768200D01*
X151150000Y-73736200D02*
X151658000Y-73228200D01*
X153182000Y-73228200D02*
X153690000Y-73736200D01*
X153690000Y-75260200D02*
X153182000Y-75768200D01*
X151658000Y-75768200D02*
X151150000Y-75260200D01*
X151150000Y-75260200D02*
X150642000Y-75768200D01*
X149118000Y-75768200D02*
X148610000Y-75260200D01*
X150642000Y-73228200D02*
X151150000Y-73736200D01*
X151150000Y-73736200D02*
X151150000Y-75260200D01*
X149118000Y-73228200D02*
X150642000Y-73228200D01*
X148610000Y-75260200D02*
X148610000Y-73736200D01*
X148610000Y-73736200D02*
X149118000Y-73228200D01*
X150642000Y-75768200D02*
X149118000Y-75768200D01*
X148610000Y-75260200D02*
X148102000Y-75768200D01*
X146578000Y-75768200D02*
X146070000Y-75260200D01*
X148102000Y-73228200D02*
X148610000Y-73736200D01*
X148610000Y-73736200D02*
X148610000Y-75260200D01*
X146578000Y-73228200D02*
X148102000Y-73228200D01*
X146070000Y-75260200D02*
X146070000Y-73736200D01*
X146070000Y-73736200D02*
X146578000Y-73228200D01*
X148102000Y-75768200D02*
X146578000Y-75768200D01*
X156230000Y-75260200D02*
X155722000Y-75768200D01*
X154198000Y-75768200D02*
X153690000Y-75260200D01*
X155722000Y-73228200D02*
X156230000Y-73736200D01*
X156230000Y-73736200D02*
X156230000Y-75260200D01*
X154198000Y-73228200D02*
X155722000Y-73228200D01*
X153690000Y-75260200D02*
X153690000Y-73736200D01*
X153690000Y-73736200D02*
X154198000Y-73228200D01*
X155722000Y-75768200D02*
X154198000Y-75768200D01*
X164372000Y-109987600D02*
X165896000Y-109987600D01*
X166404000Y-112019600D02*
X165896000Y-112527600D01*
X163864000Y-112019600D02*
X163864000Y-110495600D01*
X164372000Y-112527600D02*
X163864000Y-112019600D01*
X163864000Y-110495600D02*
X164372000Y-109987600D01*
X165896000Y-112527600D02*
X164372000Y-112527600D01*
X165896000Y-109987600D02*
X166404000Y-110495600D01*
X166404000Y-110495600D02*
X166404000Y-112019600D01*
X164372000Y-107447600D02*
X165896000Y-107447600D01*
X166404000Y-109479600D02*
X165896000Y-109987600D01*
X163864000Y-109479600D02*
X163864000Y-107955600D01*
X164372000Y-109987600D02*
X163864000Y-109479600D01*
X163864000Y-107955600D02*
X164372000Y-107447600D01*
X165896000Y-109987600D02*
X164372000Y-109987600D01*
X165896000Y-107447600D02*
X166404000Y-107955600D01*
X166404000Y-107955600D02*
X166404000Y-109479600D01*
X164372000Y-104907600D02*
X165896000Y-104907600D01*
X166404000Y-106939600D02*
X165896000Y-107447600D01*
X163864000Y-106939600D02*
X163864000Y-105415600D01*
X164372000Y-107447600D02*
X163864000Y-106939600D01*
X163864000Y-105415600D02*
X164372000Y-104907600D01*
X165896000Y-107447600D02*
X164372000Y-107447600D01*
X165896000Y-104907600D02*
X166404000Y-105415600D01*
X166404000Y-105415600D02*
X166404000Y-106939600D01*
X164372000Y-102367600D02*
X165896000Y-102367600D01*
X166404000Y-104399600D02*
X165896000Y-104907600D01*
X163864000Y-104399600D02*
X163864000Y-102875600D01*
X164372000Y-104907600D02*
X163864000Y-104399600D01*
X163864000Y-102875600D02*
X164372000Y-102367600D01*
X165896000Y-104907600D02*
X164372000Y-104907600D01*
X165896000Y-102367600D02*
X166404000Y-102875600D01*
X166404000Y-102875600D02*
X166404000Y-104399600D01*
X164372000Y-99827600D02*
X165896000Y-99827600D01*
X166404000Y-101859600D02*
X165896000Y-102367600D01*
X163864000Y-101859600D02*
X163864000Y-100335600D01*
X164372000Y-102367600D02*
X163864000Y-101859600D01*
X163864000Y-100335600D02*
X164372000Y-99827600D01*
X165896000Y-102367600D02*
X164372000Y-102367600D01*
X165896000Y-99827600D02*
X166404000Y-100335600D01*
X166404000Y-100335600D02*
X166404000Y-101859600D01*
X164372000Y-97287600D02*
X165896000Y-97287600D01*
X166404000Y-99319600D02*
X165896000Y-99827600D01*
X163864000Y-99319600D02*
X163864000Y-97795600D01*
X164372000Y-99827600D02*
X163864000Y-99319600D01*
X163864000Y-97795600D02*
X164372000Y-97287600D01*
X165896000Y-99827600D02*
X164372000Y-99827600D01*
X165896000Y-97287600D02*
X166404000Y-97795600D01*
X166404000Y-97795600D02*
X166404000Y-99319600D01*
X164372000Y-92207600D02*
X165896000Y-92207600D01*
X166404000Y-92715600D02*
X166404000Y-94239600D01*
X165896000Y-94747600D02*
X164372000Y-94747600D01*
X163864000Y-94239600D02*
X163864000Y-92715600D01*
X165896000Y-92207600D02*
X166404000Y-92715600D01*
X166404000Y-94239600D02*
X165896000Y-94747600D01*
X164372000Y-94747600D02*
X163864000Y-94239600D01*
X163864000Y-92715600D02*
X164372000Y-92207600D01*
X164372000Y-92207600D02*
X163864000Y-91699600D01*
X163864000Y-90175600D02*
X164372000Y-89667600D01*
X166404000Y-91699600D02*
X165896000Y-92207600D01*
X165896000Y-92207600D02*
X164372000Y-92207600D01*
X166404000Y-90175600D02*
X166404000Y-91699600D01*
X164372000Y-89667600D02*
X165896000Y-89667600D01*
X165896000Y-89667600D02*
X166404000Y-90175600D01*
X163864000Y-91699600D02*
X163864000Y-90175600D01*
X164372000Y-89667600D02*
X163864000Y-89159600D01*
X163864000Y-87635600D02*
X164372000Y-87127600D01*
X166404000Y-89159600D02*
X165896000Y-89667600D01*
X165896000Y-89667600D02*
X164372000Y-89667600D01*
X166404000Y-87635600D02*
X166404000Y-89159600D01*
X164372000Y-87127600D02*
X165896000Y-87127600D01*
X165896000Y-87127600D02*
X166404000Y-87635600D01*
X163864000Y-89159600D02*
X163864000Y-87635600D01*
X164372000Y-97287600D02*
X163864000Y-96779600D01*
X163864000Y-95255600D02*
X164372000Y-94747600D01*
X166404000Y-96779600D02*
X165896000Y-97287600D01*
X165896000Y-97287600D02*
X164372000Y-97287600D01*
X166404000Y-95255600D02*
X166404000Y-96779600D01*
X164372000Y-94747600D02*
X165896000Y-94747600D01*
X165896000Y-94747600D02*
X166404000Y-95255600D01*
X163864000Y-96779600D02*
X163864000Y-95255600D01*
D12*
X153950200Y-116582200D02*
X156380200Y-116582200D01*
X155710200Y-113512200D02*
X153950200Y-113512200D01*
D15*
X136855000Y-123575800D02*
X136855000Y-125175800D01*
X146930000Y-123575800D02*
X146930000Y-117825800D01*
X136280000Y-123575800D02*
X136280000Y-117825800D01*
X146930000Y-123575800D02*
X146280000Y-123575800D01*
X146930000Y-117825800D02*
X146280000Y-117825800D01*
X136280000Y-117825800D02*
X136930000Y-117825800D01*
X136280000Y-123575800D02*
X136855000Y-123575800D01*
D12*
X164621600Y-78507200D02*
X158161600Y-78507200D01*
X164621600Y-83037200D02*
X164621600Y-80437200D01*
X164621600Y-84967200D02*
X158161600Y-84967200D01*
X158161600Y-83037200D02*
X158161600Y-80437200D01*
X164621600Y-84937200D02*
X164621600Y-84967200D01*
X164621600Y-78507200D02*
X164621600Y-78537200D01*
X158161600Y-78507200D02*
X158161600Y-78537200D01*
X158161600Y-84967200D02*
X158161600Y-84937200D01*
X146096600Y-84967200D02*
X152556600Y-84967200D01*
X146096600Y-80437200D02*
X146096600Y-83037200D01*
X146096600Y-78507200D02*
X152556600Y-78507200D01*
X152556600Y-80437200D02*
X152556600Y-83037200D01*
X146096600Y-78537200D02*
X146096600Y-78507200D01*
X146096600Y-84967200D02*
X146096600Y-84937200D01*
X152556600Y-84967200D02*
X152556600Y-84937200D01*
X152556600Y-78507200D02*
X152556600Y-78537200D01*
X158506936Y-122502600D02*
X158961064Y-122502600D01*
X158506936Y-121032600D02*
X158961064Y-121032600D01*
X158506936Y-119962600D02*
X158961064Y-119962600D01*
X158506936Y-118492600D02*
X158961064Y-118492600D01*
X151341064Y-118492600D02*
X150886936Y-118492600D01*
X151341064Y-119962600D02*
X150886936Y-119962600D01*
X151341064Y-121032600D02*
X150886936Y-121032600D01*
X151341064Y-122502600D02*
X150886936Y-122502600D01*
X125765000Y-85122936D02*
X125765000Y-85577064D01*
X127235000Y-85122936D02*
X127235000Y-85577064D01*
X135475736Y-75233200D02*
X135929864Y-75233200D01*
X135475736Y-73763200D02*
X135929864Y-73763200D01*
X136552000Y-88521936D02*
X136552000Y-88976064D01*
X138022000Y-88521936D02*
X138022000Y-88976064D01*
X138711000Y-88547336D02*
X138711000Y-89001464D01*
X140181000Y-88547336D02*
X140181000Y-89001464D01*
X134977200Y-80224136D02*
X134977200Y-80678264D01*
X136447200Y-80224136D02*
X136447200Y-80678264D01*
X143076600Y-80678264D02*
X143076600Y-80224136D01*
X141606600Y-80678264D02*
X141606600Y-80224136D01*
X141095400Y-80678264D02*
X141095400Y-80224136D01*
X139625400Y-80678264D02*
X139625400Y-80224136D01*
X146531000Y-128716264D02*
X146531000Y-128262136D01*
X145061000Y-128716264D02*
X145061000Y-128262136D01*
X141569000Y-73538200D02*
X138709000Y-73538200D01*
X141569000Y-75458200D02*
X141569000Y-73538200D01*
X138709000Y-75458200D02*
X141569000Y-75458200D01*
X141031400Y-130347600D02*
X143891400Y-130347600D01*
X141031400Y-128427600D02*
X141031400Y-130347600D01*
X143891400Y-128427600D02*
X141031400Y-128427600D01*
X161024000Y-132667600D02*
X162274000Y-132667600D01*
X161024000Y-131417600D02*
X161024000Y-132667600D01*
X165434000Y-129307600D02*
X164934000Y-129307600D01*
X164934000Y-129207600D02*
X165434000Y-129207600D01*
X164934000Y-129407600D02*
X164934000Y-129207600D01*
X165434000Y-129407600D02*
X164934000Y-129407600D01*
X163934000Y-126247600D02*
X163934000Y-126857600D01*
X162634000Y-126247600D02*
X162634000Y-126857600D01*
X163934000Y-132367600D02*
X163934000Y-131757600D01*
X162634000Y-132367600D02*
X162634000Y-131757600D01*
X161934000Y-128807600D02*
X161324000Y-128807600D01*
X161934000Y-126857600D02*
X161934000Y-128807600D01*
X165434000Y-126857600D02*
X161934000Y-126857600D01*
X165434000Y-131757600D02*
X165434000Y-126857600D01*
X161934000Y-131757600D02*
X165434000Y-131757600D01*
X161934000Y-129807600D02*
X161934000Y-131757600D01*
X161324000Y-129807600D02*
X161934000Y-129807600D01*
X161224000Y-130607600D02*
X161224000Y-130907600D01*
X161124000Y-130907600D02*
X161324000Y-130907600D01*
X161124000Y-130607600D02*
X161124000Y-130907600D01*
X161324000Y-130607600D02*
X161124000Y-130607600D01*
X161324000Y-126247600D02*
X161324000Y-132367600D01*
X166044000Y-126247600D02*
X161324000Y-126247600D01*
X166044000Y-132367600D02*
X166044000Y-126247600D01*
X161324000Y-132367600D02*
X166044000Y-132367600D01*
X126441200Y-80003400D02*
X126691200Y-80503400D01*
X126691200Y-80503400D02*
X126191200Y-80503400D01*
X126191200Y-80503400D02*
X126441200Y-80003400D01*
X161815200Y-119035148D02*
X161815200Y-121807652D01*
X165235200Y-119035148D02*
X165235200Y-121807652D01*
X160294200Y-112435200D02*
X160294200Y-109575200D01*
X158374200Y-112435200D02*
X160294200Y-112435200D01*
X158374200Y-109575200D02*
X158374200Y-112435200D01*
X160048600Y-115996600D02*
X162908600Y-115996600D01*
X160048600Y-114076600D02*
X160048600Y-115996600D01*
X162908600Y-114076600D02*
X160048600Y-114076600D01*
X154471648Y-111656800D02*
X154994152Y-111656800D01*
X154471648Y-110186800D02*
X154994152Y-110186800D01*
X147093000Y-128182648D02*
X147093000Y-128705152D01*
X148563000Y-128182648D02*
X148563000Y-128705152D01*
X137009200Y-80202048D02*
X137009200Y-80724552D01*
X138479200Y-80202048D02*
X138479200Y-80724552D01*
X154428648Y-109624800D02*
X154951152Y-109624800D01*
X154428648Y-108154800D02*
X154951152Y-108154800D01*
X154446248Y-107592800D02*
X154968752Y-107592800D01*
X154446248Y-106122800D02*
X154968752Y-106122800D01*
D15*
X134522380Y-115742857D02*
X134046190Y-116076190D01*
X134522380Y-116314285D02*
X133522380Y-116314285D01*
X133522380Y-115933333D01*
X133570000Y-115838095D01*
X133617619Y-115790476D01*
X133712857Y-115742857D01*
X133855714Y-115742857D01*
X133950952Y-115790476D01*
X133998571Y-115838095D01*
X134046190Y-115933333D01*
X134046190Y-116314285D01*
X133617619Y-115361904D02*
X133570000Y-115314285D01*
X133522380Y-115219047D01*
X133522380Y-114980952D01*
X133570000Y-114885714D01*
X133617619Y-114838095D01*
X133712857Y-114790476D01*
X133808095Y-114790476D01*
X133950952Y-114838095D01*
X134522380Y-115409523D01*
X134522380Y-114790476D01*
X133522380Y-114171428D02*
X133522380Y-114076190D01*
X133570000Y-113980952D01*
X133617619Y-113933333D01*
X133712857Y-113885714D01*
X133903333Y-113838095D01*
X134141428Y-113838095D01*
X134331904Y-113885714D01*
X134427142Y-113933333D01*
X134474761Y-113980952D01*
X134522380Y-114076190D01*
X134522380Y-114171428D01*
X134474761Y-114266666D01*
X134427142Y-114314285D01*
X134331904Y-114361904D01*
X134141428Y-114409523D01*
X133903333Y-114409523D01*
X133712857Y-114361904D01*
X133617619Y-114314285D01*
X133570000Y-114266666D01*
X133522380Y-114171428D01*
X128392380Y-84427142D02*
X128344761Y-84474761D01*
X128201904Y-84522380D01*
X128106666Y-84522380D01*
X127963809Y-84474761D01*
X127868571Y-84379523D01*
X127820952Y-84284285D01*
X127773333Y-84093809D01*
X127773333Y-83950952D01*
X127820952Y-83760476D01*
X127868571Y-83665238D01*
X127963809Y-83570000D01*
X128106666Y-83522380D01*
X128201904Y-83522380D01*
X128344761Y-83570000D01*
X128392380Y-83617619D01*
X128963809Y-83950952D02*
X128868571Y-83903333D01*
X128820952Y-83855714D01*
X128773333Y-83760476D01*
X128773333Y-83712857D01*
X128820952Y-83617619D01*
X128868571Y-83570000D01*
X128963809Y-83522380D01*
X129154285Y-83522380D01*
X129249523Y-83570000D01*
X129297142Y-83617619D01*
X129344761Y-83712857D01*
X129344761Y-83760476D01*
X129297142Y-83855714D01*
X129249523Y-83903333D01*
X129154285Y-83950952D01*
X128963809Y-83950952D01*
X128868571Y-83998571D01*
X128820952Y-84046190D01*
X128773333Y-84141428D01*
X128773333Y-84331904D01*
X128820952Y-84427142D01*
X128868571Y-84474761D01*
X128963809Y-84522380D01*
X129154285Y-84522380D01*
X129249523Y-84474761D01*
X129297142Y-84427142D01*
X129344761Y-84331904D01*
X129344761Y-84141428D01*
X129297142Y-84046190D01*
X129249523Y-83998571D01*
X129154285Y-83950952D01*
X129535238Y-84617619D02*
X130297142Y-84617619D01*
X130535238Y-84522380D02*
X130535238Y-83522380D01*
X130773333Y-83522380D01*
X130916190Y-83570000D01*
X131011428Y-83665238D01*
X131059047Y-83760476D01*
X131106666Y-83950952D01*
X131106666Y-84093809D01*
X131059047Y-84284285D01*
X131011428Y-84379523D01*
X130916190Y-84474761D01*
X130773333Y-84522380D01*
X130535238Y-84522380D01*
X131535238Y-84522380D02*
X131535238Y-83522380D01*
X132106666Y-84522380D01*
X132106666Y-83522380D01*
X132582857Y-84522380D02*
X132582857Y-83522380D01*
X132963809Y-83522380D01*
X133059047Y-83570000D01*
X133106666Y-83617619D01*
X133154285Y-83712857D01*
X133154285Y-83855714D01*
X133106666Y-83950952D01*
X133059047Y-83998571D01*
X132963809Y-84046190D01*
X132582857Y-84046190D01*
X134106666Y-84522380D02*
X133535238Y-84522380D01*
X133820952Y-84522380D02*
X133820952Y-83522380D01*
X133725714Y-83665238D01*
X133630476Y-83760476D01*
X133535238Y-83808095D01*
X127601666Y-123024761D02*
X127744523Y-123072380D01*
X127982619Y-123072380D01*
X128077857Y-123024761D01*
X128125476Y-122977142D01*
X128173095Y-122881904D01*
X128173095Y-122786666D01*
X128125476Y-122691428D01*
X128077857Y-122643809D01*
X127982619Y-122596190D01*
X127792142Y-122548571D01*
X127696904Y-122500952D01*
X127649285Y-122453333D01*
X127601666Y-122358095D01*
X127601666Y-122262857D01*
X127649285Y-122167619D01*
X127696904Y-122120000D01*
X127792142Y-122072380D01*
X128030238Y-122072380D01*
X128173095Y-122120000D01*
X128506428Y-122072380D02*
X128744523Y-123072380D01*
X128935000Y-122358095D01*
X129125476Y-123072380D01*
X129363571Y-122072380D01*
X129649285Y-122072380D02*
X130268333Y-122072380D01*
X129935000Y-122453333D01*
X130077857Y-122453333D01*
X130173095Y-122500952D01*
X130220714Y-122548571D01*
X130268333Y-122643809D01*
X130268333Y-122881904D01*
X130220714Y-122977142D01*
X130173095Y-123024761D01*
X130077857Y-123072380D01*
X129792142Y-123072380D01*
X129696904Y-123024761D01*
X129649285Y-122977142D01*
X128592380Y-115732857D02*
X128116190Y-116066190D01*
X128592380Y-116304285D02*
X127592380Y-116304285D01*
X127592380Y-115923333D01*
X127640000Y-115828095D01*
X127687619Y-115780476D01*
X127782857Y-115732857D01*
X127925714Y-115732857D01*
X128020952Y-115780476D01*
X128068571Y-115828095D01*
X128116190Y-115923333D01*
X128116190Y-116304285D01*
X128592380Y-114780476D02*
X128592380Y-115351904D01*
X128592380Y-115066190D02*
X127592380Y-115066190D01*
X127735238Y-115161428D01*
X127830476Y-115256666D01*
X127878095Y-115351904D01*
X128592380Y-114304285D02*
X128592380Y-114113809D01*
X128544761Y-114018571D01*
X128497142Y-113970952D01*
X128354285Y-113875714D01*
X128163809Y-113828095D01*
X127782857Y-113828095D01*
X127687619Y-113875714D01*
X127640000Y-113923333D01*
X127592380Y-114018571D01*
X127592380Y-114209047D01*
X127640000Y-114304285D01*
X127687619Y-114351904D01*
X127782857Y-114399523D01*
X128020952Y-114399523D01*
X128116190Y-114351904D01*
X128163809Y-114304285D01*
X128211428Y-114209047D01*
X128211428Y-114018571D01*
X128163809Y-113923333D01*
X128116190Y-113875714D01*
X128020952Y-113828095D01*
X132612380Y-115702857D02*
X132136190Y-116036190D01*
X132612380Y-116274285D02*
X131612380Y-116274285D01*
X131612380Y-115893333D01*
X131660000Y-115798095D01*
X131707619Y-115750476D01*
X131802857Y-115702857D01*
X131945714Y-115702857D01*
X132040952Y-115750476D01*
X132088571Y-115798095D01*
X132136190Y-115893333D01*
X132136190Y-116274285D01*
X132612380Y-114750476D02*
X132612380Y-115321904D01*
X132612380Y-115036190D02*
X131612380Y-115036190D01*
X131755238Y-115131428D01*
X131850476Y-115226666D01*
X131898095Y-115321904D01*
X132040952Y-114179047D02*
X131993333Y-114274285D01*
X131945714Y-114321904D01*
X131850476Y-114369523D01*
X131802857Y-114369523D01*
X131707619Y-114321904D01*
X131660000Y-114274285D01*
X131612380Y-114179047D01*
X131612380Y-113988571D01*
X131660000Y-113893333D01*
X131707619Y-113845714D01*
X131802857Y-113798095D01*
X131850476Y-113798095D01*
X131945714Y-113845714D01*
X131993333Y-113893333D01*
X132040952Y-113988571D01*
X132040952Y-114179047D01*
X132088571Y-114274285D01*
X132136190Y-114321904D01*
X132231428Y-114369523D01*
X132421904Y-114369523D01*
X132517142Y-114321904D01*
X132564761Y-114274285D01*
X132612380Y-114179047D01*
X132612380Y-113988571D01*
X132564761Y-113893333D01*
X132517142Y-113845714D01*
X132421904Y-113798095D01*
X132231428Y-113798095D01*
X132136190Y-113845714D01*
X132088571Y-113893333D01*
X132040952Y-113988571D01*
X130522380Y-115622857D02*
X130046190Y-115956190D01*
X130522380Y-116194285D02*
X129522380Y-116194285D01*
X129522380Y-115813333D01*
X129570000Y-115718095D01*
X129617619Y-115670476D01*
X129712857Y-115622857D01*
X129855714Y-115622857D01*
X129950952Y-115670476D01*
X129998571Y-115718095D01*
X130046190Y-115813333D01*
X130046190Y-116194285D01*
X130522380Y-114670476D02*
X130522380Y-115241904D01*
X130522380Y-114956190D02*
X129522380Y-114956190D01*
X129665238Y-115051428D01*
X129760476Y-115146666D01*
X129808095Y-115241904D01*
X129522380Y-114337142D02*
X129522380Y-113670476D01*
X130522380Y-114099047D01*
X126417142Y-115646666D02*
X126464761Y-115694285D01*
X126512380Y-115837142D01*
X126512380Y-115932380D01*
X126464761Y-116075238D01*
X126369523Y-116170476D01*
X126274285Y-116218095D01*
X126083809Y-116265714D01*
X125940952Y-116265714D01*
X125750476Y-116218095D01*
X125655238Y-116170476D01*
X125560000Y-116075238D01*
X125512380Y-115932380D01*
X125512380Y-115837142D01*
X125560000Y-115694285D01*
X125607619Y-115646666D01*
X125512380Y-115313333D02*
X125512380Y-114646666D01*
X126512380Y-115075238D01*
X132208095Y-92992380D02*
X132208095Y-93801904D01*
X132255714Y-93897142D01*
X132303333Y-93944761D01*
X132398571Y-93992380D01*
X132589047Y-93992380D01*
X132684285Y-93944761D01*
X132731904Y-93897142D01*
X132779523Y-93801904D01*
X132779523Y-92992380D01*
X133779523Y-93992380D02*
X133208095Y-93992380D01*
X133493809Y-93992380D02*
X133493809Y-92992380D01*
X133398571Y-93135238D01*
X133303333Y-93230476D01*
X133208095Y-93278095D01*
X129062380Y-92992857D02*
X128586190Y-93326190D01*
X129062380Y-93564285D02*
X128062380Y-93564285D01*
X128062380Y-93183333D01*
X128110000Y-93088095D01*
X128157619Y-93040476D01*
X128252857Y-92992857D01*
X128395714Y-92992857D01*
X128490952Y-93040476D01*
X128538571Y-93088095D01*
X128586190Y-93183333D01*
X128586190Y-93564285D01*
X129062380Y-92040476D02*
X129062380Y-92611904D01*
X129062380Y-92326190D02*
X128062380Y-92326190D01*
X128205238Y-92421428D01*
X128300476Y-92516666D01*
X128348095Y-92611904D01*
X128062380Y-91183333D02*
X128062380Y-91373809D01*
X128110000Y-91469047D01*
X128157619Y-91516666D01*
X128300476Y-91611904D01*
X128490952Y-91659523D01*
X128871904Y-91659523D01*
X128967142Y-91611904D01*
X129014761Y-91564285D01*
X129062380Y-91469047D01*
X129062380Y-91278571D01*
X129014761Y-91183333D01*
X128967142Y-91135714D01*
X128871904Y-91088095D01*
X128633809Y-91088095D01*
X128538571Y-91135714D01*
X128490952Y-91183333D01*
X128443333Y-91278571D01*
X128443333Y-91469047D01*
X128490952Y-91564285D01*
X128538571Y-91611904D01*
X128633809Y-91659523D01*
X127102380Y-92902857D02*
X126626190Y-93236190D01*
X127102380Y-93474285D02*
X126102380Y-93474285D01*
X126102380Y-93093333D01*
X126150000Y-92998095D01*
X126197619Y-92950476D01*
X126292857Y-92902857D01*
X126435714Y-92902857D01*
X126530952Y-92950476D01*
X126578571Y-92998095D01*
X126626190Y-93093333D01*
X126626190Y-93474285D01*
X127102380Y-91950476D02*
X127102380Y-92521904D01*
X127102380Y-92236190D02*
X126102380Y-92236190D01*
X126245238Y-92331428D01*
X126340476Y-92426666D01*
X126388095Y-92521904D01*
X126102380Y-91045714D02*
X126102380Y-91521904D01*
X126578571Y-91569523D01*
X126530952Y-91521904D01*
X126483333Y-91426666D01*
X126483333Y-91188571D01*
X126530952Y-91093333D01*
X126578571Y-91045714D01*
X126673809Y-90998095D01*
X126911904Y-90998095D01*
X127007142Y-91045714D01*
X127054761Y-91093333D01*
X127102380Y-91188571D01*
X127102380Y-91426666D01*
X127054761Y-91521904D01*
X127007142Y-91569523D01*
X155862380Y-92682857D02*
X155386190Y-93016190D01*
X155862380Y-93254285D02*
X154862380Y-93254285D01*
X154862380Y-92873333D01*
X154910000Y-92778095D01*
X154957619Y-92730476D01*
X155052857Y-92682857D01*
X155195714Y-92682857D01*
X155290952Y-92730476D01*
X155338571Y-92778095D01*
X155386190Y-92873333D01*
X155386190Y-93254285D01*
X155862380Y-91730476D02*
X155862380Y-92301904D01*
X155862380Y-92016190D02*
X154862380Y-92016190D01*
X155005238Y-92111428D01*
X155100476Y-92206666D01*
X155148095Y-92301904D01*
X155195714Y-90873333D02*
X155862380Y-90873333D01*
X154814761Y-91111428D02*
X155529047Y-91349523D01*
X155529047Y-90730476D01*
X153832380Y-92822857D02*
X153356190Y-93156190D01*
X153832380Y-93394285D02*
X152832380Y-93394285D01*
X152832380Y-93013333D01*
X152880000Y-92918095D01*
X152927619Y-92870476D01*
X153022857Y-92822857D01*
X153165714Y-92822857D01*
X153260952Y-92870476D01*
X153308571Y-92918095D01*
X153356190Y-93013333D01*
X153356190Y-93394285D01*
X153832380Y-91870476D02*
X153832380Y-92441904D01*
X153832380Y-92156190D02*
X152832380Y-92156190D01*
X152975238Y-92251428D01*
X153070476Y-92346666D01*
X153118095Y-92441904D01*
X152832380Y-91537142D02*
X152832380Y-90918095D01*
X153213333Y-91251428D01*
X153213333Y-91108571D01*
X153260952Y-91013333D01*
X153308571Y-90965714D01*
X153403809Y-90918095D01*
X153641904Y-90918095D01*
X153737142Y-90965714D01*
X153784761Y-91013333D01*
X153832380Y-91108571D01*
X153832380Y-91394285D01*
X153784761Y-91489523D01*
X153737142Y-91537142D01*
X152391666Y-122742380D02*
X152391666Y-123456666D01*
X152344047Y-123599523D01*
X152248809Y-123694761D01*
X152105952Y-123742380D01*
X152010714Y-123742380D01*
X152820238Y-122837619D02*
X152867857Y-122790000D01*
X152963095Y-122742380D01*
X153201190Y-122742380D01*
X153296428Y-122790000D01*
X153344047Y-122837619D01*
X153391666Y-122932857D01*
X153391666Y-123028095D01*
X153344047Y-123170952D01*
X152772619Y-123742380D01*
X153391666Y-123742380D01*
X147876742Y-114478966D02*
X147924361Y-114526585D01*
X147971980Y-114669442D01*
X147971980Y-114764680D01*
X147924361Y-114907538D01*
X147829123Y-115002776D01*
X147733885Y-115050395D01*
X147543409Y-115098014D01*
X147400552Y-115098014D01*
X147210076Y-115050395D01*
X147114838Y-115002776D01*
X147019600Y-114907538D01*
X146971980Y-114764680D01*
X146971980Y-114669442D01*
X147019600Y-114526585D01*
X147067219Y-114478966D01*
X146971980Y-113621823D02*
X146971980Y-113812300D01*
X147019600Y-113907538D01*
X147067219Y-113955157D01*
X147210076Y-114050395D01*
X147400552Y-114098014D01*
X147781504Y-114098014D01*
X147876742Y-114050395D01*
X147924361Y-114002776D01*
X147971980Y-113907538D01*
X147971980Y-113717061D01*
X147924361Y-113621823D01*
X147876742Y-113574204D01*
X147781504Y-113526585D01*
X147543409Y-113526585D01*
X147448171Y-113574204D01*
X147400552Y-113621823D01*
X147352933Y-113717061D01*
X147352933Y-113907538D01*
X147400552Y-114002776D01*
X147448171Y-114050395D01*
X147543409Y-114098014D01*
X116768095Y-104512380D02*
X116768095Y-103512380D01*
X117149047Y-103512380D01*
X117244285Y-103560000D01*
X117291904Y-103607619D01*
X117339523Y-103702857D01*
X117339523Y-103845714D01*
X117291904Y-103940952D01*
X117244285Y-103988571D01*
X117149047Y-104036190D01*
X116768095Y-104036190D01*
X117768095Y-104512380D02*
X117768095Y-103512380D01*
X117768095Y-103988571D02*
X118339523Y-103988571D01*
X118339523Y-104512380D02*
X118339523Y-103512380D01*
X118768095Y-103607619D02*
X118815714Y-103560000D01*
X118910952Y-103512380D01*
X119149047Y-103512380D01*
X119244285Y-103560000D01*
X119291904Y-103607619D01*
X119339523Y-103702857D01*
X119339523Y-103798095D01*
X119291904Y-103940952D01*
X118720476Y-104512380D01*
X119339523Y-104512380D01*
X117000495Y-77414380D02*
X117000495Y-76414380D01*
X117381447Y-76414380D01*
X117476685Y-76462000D01*
X117524304Y-76509619D01*
X117571923Y-76604857D01*
X117571923Y-76747714D01*
X117524304Y-76842952D01*
X117476685Y-76890571D01*
X117381447Y-76938190D01*
X117000495Y-76938190D01*
X118000495Y-77414380D02*
X118000495Y-76414380D01*
X118000495Y-76890571D02*
X118571923Y-76890571D01*
X118571923Y-77414380D02*
X118571923Y-76414380D01*
X119571923Y-77414380D02*
X119000495Y-77414380D01*
X119286209Y-77414380D02*
X119286209Y-76414380D01*
X119190971Y-76557238D01*
X119095733Y-76652476D01*
X119000495Y-76700095D01*
X145692380Y-76081904D02*
X144692380Y-76081904D01*
X144692380Y-75700952D01*
X144740000Y-75605714D01*
X144787619Y-75558095D01*
X144882857Y-75510476D01*
X145025714Y-75510476D01*
X145120952Y-75558095D01*
X145168571Y-75605714D01*
X145216190Y-75700952D01*
X145216190Y-76081904D01*
X145692380Y-75081904D02*
X144692380Y-75081904D01*
X145168571Y-75081904D02*
X145168571Y-74510476D01*
X145692380Y-74510476D02*
X144692380Y-74510476D01*
X145025714Y-73605714D02*
X145692380Y-73605714D01*
X144644761Y-73843809D02*
X145359047Y-74081904D01*
X145359047Y-73462857D01*
X163908095Y-86842380D02*
X163908095Y-85842380D01*
X164289047Y-85842380D01*
X164384285Y-85890000D01*
X164431904Y-85937619D01*
X164479523Y-86032857D01*
X164479523Y-86175714D01*
X164431904Y-86270952D01*
X164384285Y-86318571D01*
X164289047Y-86366190D01*
X163908095Y-86366190D01*
X164908095Y-86842380D02*
X164908095Y-85842380D01*
X164908095Y-86318571D02*
X165479523Y-86318571D01*
X165479523Y-86842380D02*
X165479523Y-85842380D01*
X165860476Y-85842380D02*
X166479523Y-85842380D01*
X166146190Y-86223333D01*
X166289047Y-86223333D01*
X166384285Y-86270952D01*
X166431904Y-86318571D01*
X166479523Y-86413809D01*
X166479523Y-86651904D01*
X166431904Y-86747142D01*
X166384285Y-86794761D01*
X166289047Y-86842380D01*
X166003333Y-86842380D01*
X165908095Y-86794761D01*
X165860476Y-86747142D01*
X154000295Y-112126780D02*
X154000295Y-112936304D01*
X154047914Y-113031542D01*
X154095533Y-113079161D01*
X154190771Y-113126780D01*
X154381247Y-113126780D01*
X154476485Y-113079161D01*
X154524104Y-113031542D01*
X154571723Y-112936304D01*
X154571723Y-112126780D01*
X154952676Y-112126780D02*
X155571723Y-112126780D01*
X155238390Y-112507733D01*
X155381247Y-112507733D01*
X155476485Y-112555352D01*
X155524104Y-112602971D01*
X155571723Y-112698209D01*
X155571723Y-112936304D01*
X155524104Y-113031542D01*
X155476485Y-113079161D01*
X155381247Y-113126780D01*
X155095533Y-113126780D01*
X155000295Y-113079161D01*
X154952676Y-113031542D01*
X134642380Y-123451904D02*
X135451904Y-123451904D01*
X135547142Y-123404285D01*
X135594761Y-123356666D01*
X135642380Y-123261428D01*
X135642380Y-123070952D01*
X135594761Y-122975714D01*
X135547142Y-122928095D01*
X135451904Y-122880476D01*
X134642380Y-122880476D01*
X134737619Y-122451904D02*
X134690000Y-122404285D01*
X134642380Y-122309047D01*
X134642380Y-122070952D01*
X134690000Y-121975714D01*
X134737619Y-121928095D01*
X134832857Y-121880476D01*
X134928095Y-121880476D01*
X135070952Y-121928095D01*
X135642380Y-122499523D01*
X135642380Y-121880476D01*
X157929342Y-124048780D02*
X157596009Y-123572590D01*
X157357914Y-124048780D02*
X157357914Y-123048780D01*
X157738866Y-123048780D01*
X157834104Y-123096400D01*
X157881723Y-123144019D01*
X157929342Y-123239257D01*
X157929342Y-123382114D01*
X157881723Y-123477352D01*
X157834104Y-123524971D01*
X157738866Y-123572590D01*
X157357914Y-123572590D01*
X158881723Y-124048780D02*
X158310295Y-124048780D01*
X158596009Y-124048780D02*
X158596009Y-123048780D01*
X158500771Y-123191638D01*
X158405533Y-123286876D01*
X158310295Y-123334495D01*
X159262676Y-123144019D02*
X159310295Y-123096400D01*
X159405533Y-123048780D01*
X159643628Y-123048780D01*
X159738866Y-123096400D01*
X159786485Y-123144019D01*
X159834104Y-123239257D01*
X159834104Y-123334495D01*
X159786485Y-123477352D01*
X159215057Y-124048780D01*
X159834104Y-124048780D01*
X158132542Y-117876580D02*
X157799209Y-117400390D01*
X157561114Y-117876580D02*
X157561114Y-116876580D01*
X157942066Y-116876580D01*
X158037304Y-116924200D01*
X158084923Y-116971819D01*
X158132542Y-117067057D01*
X158132542Y-117209914D01*
X158084923Y-117305152D01*
X158037304Y-117352771D01*
X157942066Y-117400390D01*
X157561114Y-117400390D01*
X159084923Y-117876580D02*
X158513495Y-117876580D01*
X158799209Y-117876580D02*
X158799209Y-116876580D01*
X158703971Y-117019438D01*
X158608733Y-117114676D01*
X158513495Y-117162295D01*
X160037304Y-117876580D02*
X159465876Y-117876580D01*
X159751590Y-117876580D02*
X159751590Y-116876580D01*
X159656352Y-117019438D01*
X159561114Y-117114676D01*
X159465876Y-117162295D01*
X150497797Y-117937885D02*
X150164464Y-117461695D01*
X149926369Y-117937885D02*
X149926369Y-116937885D01*
X150307321Y-116937885D01*
X150402559Y-116985505D01*
X150450178Y-117033124D01*
X150497797Y-117128362D01*
X150497797Y-117271219D01*
X150450178Y-117366457D01*
X150402559Y-117414076D01*
X150307321Y-117461695D01*
X149926369Y-117461695D01*
X151450178Y-117937885D02*
X150878750Y-117937885D01*
X151164464Y-117937885D02*
X151164464Y-116937885D01*
X151069226Y-117080743D01*
X150973988Y-117175981D01*
X150878750Y-117223600D01*
X152069226Y-116937885D02*
X152164464Y-116937885D01*
X152259702Y-116985505D01*
X152307321Y-117033124D01*
X152354940Y-117128362D01*
X152402559Y-117318838D01*
X152402559Y-117556933D01*
X152354940Y-117747409D01*
X152307321Y-117842647D01*
X152259702Y-117890266D01*
X152164464Y-117937885D01*
X152069226Y-117937885D01*
X151973988Y-117890266D01*
X151926369Y-117842647D01*
X151878750Y-117747409D01*
X151831131Y-117556933D01*
X151831131Y-117318838D01*
X151878750Y-117128362D01*
X151926369Y-117033124D01*
X151973988Y-116985505D01*
X152069226Y-116937885D01*
X150947333Y-123869980D02*
X150614000Y-123393790D01*
X150375904Y-123869980D02*
X150375904Y-122869980D01*
X150756857Y-122869980D01*
X150852095Y-122917600D01*
X150899714Y-122965219D01*
X150947333Y-123060457D01*
X150947333Y-123203314D01*
X150899714Y-123298552D01*
X150852095Y-123346171D01*
X150756857Y-123393790D01*
X150375904Y-123393790D01*
X151423523Y-123869980D02*
X151614000Y-123869980D01*
X151709238Y-123822361D01*
X151756857Y-123774742D01*
X151852095Y-123631885D01*
X151899714Y-123441409D01*
X151899714Y-123060457D01*
X151852095Y-122965219D01*
X151804476Y-122917600D01*
X151709238Y-122869980D01*
X151518761Y-122869980D01*
X151423523Y-122917600D01*
X151375904Y-122965219D01*
X151328285Y-123060457D01*
X151328285Y-123298552D01*
X151375904Y-123393790D01*
X151423523Y-123441409D01*
X151518761Y-123489028D01*
X151709238Y-123489028D01*
X151804476Y-123441409D01*
X151852095Y-123393790D01*
X151899714Y-123298552D01*
X128365333Y-85684780D02*
X128032000Y-85208590D01*
X127793904Y-85684780D02*
X127793904Y-84684780D01*
X128174857Y-84684780D01*
X128270095Y-84732400D01*
X128317714Y-84780019D01*
X128365333Y-84875257D01*
X128365333Y-85018114D01*
X128317714Y-85113352D01*
X128270095Y-85160971D01*
X128174857Y-85208590D01*
X127793904Y-85208590D01*
X128936761Y-85113352D02*
X128841523Y-85065733D01*
X128793904Y-85018114D01*
X128746285Y-84922876D01*
X128746285Y-84875257D01*
X128793904Y-84780019D01*
X128841523Y-84732400D01*
X128936761Y-84684780D01*
X129127238Y-84684780D01*
X129222476Y-84732400D01*
X129270095Y-84780019D01*
X129317714Y-84875257D01*
X129317714Y-84922876D01*
X129270095Y-85018114D01*
X129222476Y-85065733D01*
X129127238Y-85113352D01*
X128936761Y-85113352D01*
X128841523Y-85160971D01*
X128793904Y-85208590D01*
X128746285Y-85303828D01*
X128746285Y-85494304D01*
X128793904Y-85589542D01*
X128841523Y-85637161D01*
X128936761Y-85684780D01*
X129127238Y-85684780D01*
X129222476Y-85637161D01*
X129270095Y-85589542D01*
X129317714Y-85494304D01*
X129317714Y-85303828D01*
X129270095Y-85208590D01*
X129222476Y-85160971D01*
X129127238Y-85113352D01*
X135570933Y-76728580D02*
X135237600Y-76252390D01*
X134999504Y-76728580D02*
X134999504Y-75728580D01*
X135380457Y-75728580D01*
X135475695Y-75776200D01*
X135523314Y-75823819D01*
X135570933Y-75919057D01*
X135570933Y-76061914D01*
X135523314Y-76157152D01*
X135475695Y-76204771D01*
X135380457Y-76252390D01*
X134999504Y-76252390D01*
X135904266Y-75728580D02*
X136570933Y-75728580D01*
X136142361Y-76728580D01*
X137120333Y-86569180D02*
X136787000Y-86092990D01*
X136548904Y-86569180D02*
X136548904Y-85569180D01*
X136929857Y-85569180D01*
X137025095Y-85616800D01*
X137072714Y-85664419D01*
X137120333Y-85759657D01*
X137120333Y-85902514D01*
X137072714Y-85997752D01*
X137025095Y-86045371D01*
X136929857Y-86092990D01*
X136548904Y-86092990D01*
X137977476Y-85569180D02*
X137787000Y-85569180D01*
X137691761Y-85616800D01*
X137644142Y-85664419D01*
X137548904Y-85807276D01*
X137501285Y-85997752D01*
X137501285Y-86378704D01*
X137548904Y-86473942D01*
X137596523Y-86521561D01*
X137691761Y-86569180D01*
X137882238Y-86569180D01*
X137977476Y-86521561D01*
X138025095Y-86473942D01*
X138072714Y-86378704D01*
X138072714Y-86140609D01*
X138025095Y-86045371D01*
X137977476Y-85997752D01*
X137882238Y-85950133D01*
X137691761Y-85950133D01*
X137596523Y-85997752D01*
X137548904Y-86045371D01*
X137501285Y-86140609D01*
X139228533Y-86609180D02*
X138895200Y-86132990D01*
X138657104Y-86609180D02*
X138657104Y-85609180D01*
X139038057Y-85609180D01*
X139133295Y-85656800D01*
X139180914Y-85704419D01*
X139228533Y-85799657D01*
X139228533Y-85942514D01*
X139180914Y-86037752D01*
X139133295Y-86085371D01*
X139038057Y-86132990D01*
X138657104Y-86132990D01*
X140133295Y-85609180D02*
X139657104Y-85609180D01*
X139609485Y-86085371D01*
X139657104Y-86037752D01*
X139752342Y-85990133D01*
X139990438Y-85990133D01*
X140085676Y-86037752D01*
X140133295Y-86085371D01*
X140180914Y-86180609D01*
X140180914Y-86418704D01*
X140133295Y-86513942D01*
X140085676Y-86561561D01*
X139990438Y-86609180D01*
X139752342Y-86609180D01*
X139657104Y-86561561D01*
X139609485Y-86513942D01*
X135520133Y-83637380D02*
X135186800Y-83161190D01*
X134948704Y-83637380D02*
X134948704Y-82637380D01*
X135329657Y-82637380D01*
X135424895Y-82685000D01*
X135472514Y-82732619D01*
X135520133Y-82827857D01*
X135520133Y-82970714D01*
X135472514Y-83065952D01*
X135424895Y-83113571D01*
X135329657Y-83161190D01*
X134948704Y-83161190D01*
X136377276Y-82970714D02*
X136377276Y-83637380D01*
X136139180Y-82589761D02*
X135901085Y-83304047D01*
X136520133Y-83304047D01*
X142276533Y-83611980D02*
X141943200Y-83135790D01*
X141705104Y-83611980D02*
X141705104Y-82611980D01*
X142086057Y-82611980D01*
X142181295Y-82659600D01*
X142228914Y-82707219D01*
X142276533Y-82802457D01*
X142276533Y-82945314D01*
X142228914Y-83040552D01*
X142181295Y-83088171D01*
X142086057Y-83135790D01*
X141705104Y-83135790D01*
X142609866Y-82611980D02*
X143228914Y-82611980D01*
X142895580Y-82992933D01*
X143038438Y-82992933D01*
X143133676Y-83040552D01*
X143181295Y-83088171D01*
X143228914Y-83183409D01*
X143228914Y-83421504D01*
X143181295Y-83516742D01*
X143133676Y-83564361D01*
X143038438Y-83611980D01*
X142752723Y-83611980D01*
X142657485Y-83564361D01*
X142609866Y-83516742D01*
X140117533Y-83611980D02*
X139784200Y-83135790D01*
X139546104Y-83611980D02*
X139546104Y-82611980D01*
X139927057Y-82611980D01*
X140022295Y-82659600D01*
X140069914Y-82707219D01*
X140117533Y-82802457D01*
X140117533Y-82945314D01*
X140069914Y-83040552D01*
X140022295Y-83088171D01*
X139927057Y-83135790D01*
X139546104Y-83135790D01*
X140498485Y-82707219D02*
X140546104Y-82659600D01*
X140641342Y-82611980D01*
X140879438Y-82611980D01*
X140974676Y-82659600D01*
X141022295Y-82707219D01*
X141069914Y-82802457D01*
X141069914Y-82897695D01*
X141022295Y-83040552D01*
X140450866Y-83611980D01*
X141069914Y-83611980D01*
X145705533Y-131541780D02*
X145372200Y-131065590D01*
X145134104Y-131541780D02*
X145134104Y-130541780D01*
X145515057Y-130541780D01*
X145610295Y-130589400D01*
X145657914Y-130637019D01*
X145705533Y-130732257D01*
X145705533Y-130875114D01*
X145657914Y-130970352D01*
X145610295Y-131017971D01*
X145515057Y-131065590D01*
X145134104Y-131065590D01*
X146657914Y-131541780D02*
X146086485Y-131541780D01*
X146372200Y-131541780D02*
X146372200Y-130541780D01*
X146276961Y-130684638D01*
X146181723Y-130779876D01*
X146086485Y-130827495D01*
X141476552Y-131592580D02*
X141000361Y-131592580D01*
X141000361Y-130592580D01*
X141809885Y-131068771D02*
X142143219Y-131068771D01*
X142286076Y-131592580D02*
X141809885Y-131592580D01*
X141809885Y-130592580D01*
X142286076Y-130592580D01*
X142714647Y-131592580D02*
X142714647Y-130592580D01*
X142952742Y-130592580D01*
X143095600Y-130640200D01*
X143190838Y-130735438D01*
X143238457Y-130830676D01*
X143286076Y-131021152D01*
X143286076Y-131164009D01*
X143238457Y-131354485D01*
X143190838Y-131449723D01*
X143095600Y-131544961D01*
X142952742Y-131592580D01*
X142714647Y-131592580D01*
X144238457Y-131592580D02*
X143667028Y-131592580D01*
X143952742Y-131592580D02*
X143952742Y-130592580D01*
X143857504Y-130735438D01*
X143762266Y-130830676D01*
X143667028Y-130878295D01*
X162385523Y-124547380D02*
X162385523Y-125261666D01*
X162337904Y-125404523D01*
X162242666Y-125499761D01*
X162099809Y-125547380D01*
X162004571Y-125547380D01*
X162814095Y-125499761D02*
X162956952Y-125547380D01*
X163195047Y-125547380D01*
X163290285Y-125499761D01*
X163337904Y-125452142D01*
X163385523Y-125356904D01*
X163385523Y-125261666D01*
X163337904Y-125166428D01*
X163290285Y-125118809D01*
X163195047Y-125071190D01*
X163004571Y-125023571D01*
X162909333Y-124975952D01*
X162861714Y-124928333D01*
X162814095Y-124833095D01*
X162814095Y-124737857D01*
X162861714Y-124642619D01*
X162909333Y-124595000D01*
X163004571Y-124547380D01*
X163242666Y-124547380D01*
X163385523Y-124595000D01*
X163671238Y-124547380D02*
X164242666Y-124547380D01*
X163956952Y-125547380D02*
X163956952Y-124547380D01*
X165099809Y-125547380D02*
X164528380Y-125547380D01*
X164814095Y-125547380D02*
X164814095Y-124547380D01*
X164718857Y-124690238D01*
X164623619Y-124785476D01*
X164528380Y-124833095D01*
X118781580Y-74348933D02*
X119495866Y-74348933D01*
X119638723Y-74396552D01*
X119733961Y-74491790D01*
X119781580Y-74634647D01*
X119781580Y-74729885D01*
X119781580Y-73348933D02*
X119781580Y-73920361D01*
X119781580Y-73634647D02*
X118781580Y-73634647D01*
X118924438Y-73729885D01*
X119019676Y-73825123D01*
X119067295Y-73920361D01*
X164563466Y-116158971D02*
X164230133Y-116158971D01*
X164230133Y-116682780D02*
X164230133Y-115682780D01*
X164706323Y-115682780D01*
X165611085Y-116682780D02*
X165039657Y-116682780D01*
X165325371Y-116682780D02*
X165325371Y-115682780D01*
X165230133Y-115825638D01*
X165134895Y-115920876D01*
X165039657Y-115968495D01*
X158799304Y-108529380D02*
X158799304Y-107529380D01*
X159037400Y-107529380D01*
X159180257Y-107577000D01*
X159275495Y-107672238D01*
X159323114Y-107767476D01*
X159370733Y-107957952D01*
X159370733Y-108100809D01*
X159323114Y-108291285D01*
X159275495Y-108386523D01*
X159180257Y-108481761D01*
X159037400Y-108529380D01*
X158799304Y-108529380D01*
X159751685Y-107624619D02*
X159799304Y-107577000D01*
X159894542Y-107529380D01*
X160132638Y-107529380D01*
X160227876Y-107577000D01*
X160275495Y-107624619D01*
X160323114Y-107719857D01*
X160323114Y-107815095D01*
X160275495Y-107957952D01*
X159704066Y-108529380D01*
X160323114Y-108529380D01*
X161170504Y-113838980D02*
X161170504Y-112838980D01*
X161408600Y-112838980D01*
X161551457Y-112886600D01*
X161646695Y-112981838D01*
X161694314Y-113077076D01*
X161741933Y-113267552D01*
X161741933Y-113410409D01*
X161694314Y-113600885D01*
X161646695Y-113696123D01*
X161551457Y-113791361D01*
X161408600Y-113838980D01*
X161170504Y-113838980D01*
X162694314Y-113838980D02*
X162122885Y-113838980D01*
X162408600Y-113838980D02*
X162408600Y-112838980D01*
X162313361Y-112981838D01*
X162218123Y-113077076D01*
X162122885Y-113124695D01*
X157262533Y-111278942D02*
X157214914Y-111326561D01*
X157072057Y-111374180D01*
X156976819Y-111374180D01*
X156833961Y-111326561D01*
X156738723Y-111231323D01*
X156691104Y-111136085D01*
X156643485Y-110945609D01*
X156643485Y-110802752D01*
X156691104Y-110612276D01*
X156738723Y-110517038D01*
X156833961Y-110421800D01*
X156976819Y-110374180D01*
X157072057Y-110374180D01*
X157214914Y-110421800D01*
X157262533Y-110469419D01*
X158167295Y-110374180D02*
X157691104Y-110374180D01*
X157643485Y-110850371D01*
X157691104Y-110802752D01*
X157786342Y-110755133D01*
X158024438Y-110755133D01*
X158119676Y-110802752D01*
X158167295Y-110850371D01*
X158214914Y-110945609D01*
X158214914Y-111183704D01*
X158167295Y-111278942D01*
X158119676Y-111326561D01*
X158024438Y-111374180D01*
X157786342Y-111374180D01*
X157691104Y-111326561D01*
X157643485Y-111278942D01*
X147712133Y-126315742D02*
X147664514Y-126363361D01*
X147521657Y-126410980D01*
X147426419Y-126410980D01*
X147283561Y-126363361D01*
X147188323Y-126268123D01*
X147140704Y-126172885D01*
X147093085Y-125982409D01*
X147093085Y-125839552D01*
X147140704Y-125649076D01*
X147188323Y-125553838D01*
X147283561Y-125458600D01*
X147426419Y-125410980D01*
X147521657Y-125410980D01*
X147664514Y-125458600D01*
X147712133Y-125506219D01*
X148569276Y-125744314D02*
X148569276Y-126410980D01*
X148331180Y-125363361D02*
X148093085Y-126077647D01*
X148712133Y-126077647D01*
X137577533Y-83491342D02*
X137529914Y-83538961D01*
X137387057Y-83586580D01*
X137291819Y-83586580D01*
X137148961Y-83538961D01*
X137053723Y-83443723D01*
X137006104Y-83348485D01*
X136958485Y-83158009D01*
X136958485Y-83015152D01*
X137006104Y-82824676D01*
X137053723Y-82729438D01*
X137148961Y-82634200D01*
X137291819Y-82586580D01*
X137387057Y-82586580D01*
X137529914Y-82634200D01*
X137577533Y-82681819D01*
X137910866Y-82586580D02*
X138529914Y-82586580D01*
X138196580Y-82967533D01*
X138339438Y-82967533D01*
X138434676Y-83015152D01*
X138482295Y-83062771D01*
X138529914Y-83158009D01*
X138529914Y-83396104D01*
X138482295Y-83491342D01*
X138434676Y-83538961D01*
X138339438Y-83586580D01*
X138053723Y-83586580D01*
X137958485Y-83538961D01*
X137910866Y-83491342D01*
X157244933Y-108865942D02*
X157197314Y-108913561D01*
X157054457Y-108961180D01*
X156959219Y-108961180D01*
X156816361Y-108913561D01*
X156721123Y-108818323D01*
X156673504Y-108723085D01*
X156625885Y-108532609D01*
X156625885Y-108389752D01*
X156673504Y-108199276D01*
X156721123Y-108104038D01*
X156816361Y-108008800D01*
X156959219Y-107961180D01*
X157054457Y-107961180D01*
X157197314Y-108008800D01*
X157244933Y-108056419D01*
X157625885Y-108056419D02*
X157673504Y-108008800D01*
X157768742Y-107961180D01*
X158006838Y-107961180D01*
X158102076Y-108008800D01*
X158149695Y-108056419D01*
X158197314Y-108151657D01*
X158197314Y-108246895D01*
X158149695Y-108389752D01*
X157578266Y-108961180D01*
X158197314Y-108961180D01*
X157491133Y-107037142D02*
X157443514Y-107084761D01*
X157300657Y-107132380D01*
X157205419Y-107132380D01*
X157062561Y-107084761D01*
X156967323Y-106989523D01*
X156919704Y-106894285D01*
X156872085Y-106703809D01*
X156872085Y-106560952D01*
X156919704Y-106370476D01*
X156967323Y-106275238D01*
X157062561Y-106180000D01*
X157205419Y-106132380D01*
X157300657Y-106132380D01*
X157443514Y-106180000D01*
X157491133Y-106227619D01*
X158443514Y-107132380D02*
X157872085Y-107132380D01*
X158157800Y-107132380D02*
X158157800Y-106132380D01*
X158062561Y-106275238D01*
X157967323Y-106370476D01*
X157872085Y-106418095D01*
%LPC*%
G36*
G01*
X134650001Y-118000000D02*
X133749999Y-118000000D01*
G75*
G02*
X133500000Y-117750001I0J249999D01*
G01*
X133500000Y-117049999D01*
G75*
G02*
X133749999Y-116800000I249999J0D01*
G01*
X134650001Y-116800000D01*
G75*
G02*
X134900000Y-117049999I0J-249999D01*
G01*
X134900000Y-117750001D01*
G75*
G02*
X134650001Y-118000000I-249999J0D01*
G01*
G37*
G36*
G01*
X134650001Y-120000000D02*
X133749999Y-120000000D01*
G75*
G02*
X133500000Y-119750001I0J249999D01*
G01*
X133500000Y-119049999D01*
G75*
G02*
X133749999Y-118800000I249999J0D01*
G01*
X134650001Y-118800000D01*
G75*
G02*
X134900000Y-119049999I0J-249999D01*
G01*
X134900000Y-119750001D01*
G75*
G02*
X134650001Y-120000000I-249999J0D01*
G01*
G37*
G36*
G01*
X129942500Y-82885000D02*
X129942500Y-81935000D01*
G75*
G02*
X130192500Y-81685000I250000J0D01*
G01*
X130867500Y-81685000D01*
G75*
G02*
X131117500Y-81935000I0J-250000D01*
G01*
X131117500Y-82885000D01*
G75*
G02*
X130867500Y-83135000I-250000J0D01*
G01*
X130192500Y-83135000D01*
G75*
G02*
X129942500Y-82885000I0J250000D01*
G01*
G37*
G36*
G01*
X127867500Y-82885000D02*
X127867500Y-81935000D01*
G75*
G02*
X128117500Y-81685000I250000J0D01*
G01*
X128792500Y-81685000D01*
G75*
G02*
X129042500Y-81935000I0J-250000D01*
G01*
X129042500Y-82885000D01*
G75*
G02*
X128792500Y-83135000I-250000J0D01*
G01*
X128117500Y-83135000D01*
G75*
G02*
X127867500Y-82885000I0J250000D01*
G01*
G37*
D16*
X132910000Y-128920000D03*
X132910000Y-124420000D03*
X124960000Y-124420000D03*
X124960000Y-128920000D03*
G36*
G01*
X128460001Y-117960000D02*
X127559999Y-117960000D01*
G75*
G02*
X127310000Y-117710001I0J249999D01*
G01*
X127310000Y-117009999D01*
G75*
G02*
X127559999Y-116760000I249999J0D01*
G01*
X128460001Y-116760000D01*
G75*
G02*
X128710000Y-117009999I0J-249999D01*
G01*
X128710000Y-117710001D01*
G75*
G02*
X128460001Y-117960000I-249999J0D01*
G01*
G37*
G36*
G01*
X128460001Y-119960000D02*
X127559999Y-119960000D01*
G75*
G02*
X127310000Y-119710001I0J249999D01*
G01*
X127310000Y-119009999D01*
G75*
G02*
X127559999Y-118760000I249999J0D01*
G01*
X128460001Y-118760000D01*
G75*
G02*
X128710000Y-119009999I0J-249999D01*
G01*
X128710000Y-119710001D01*
G75*
G02*
X128460001Y-119960000I-249999J0D01*
G01*
G37*
G36*
G01*
X131699999Y-118810000D02*
X132600001Y-118810000D01*
G75*
G02*
X132850000Y-119059999I0J-249999D01*
G01*
X132850000Y-119760001D01*
G75*
G02*
X132600001Y-120010000I-249999J0D01*
G01*
X131699999Y-120010000D01*
G75*
G02*
X131450000Y-119760001I0J249999D01*
G01*
X131450000Y-119059999D01*
G75*
G02*
X131699999Y-118810000I249999J0D01*
G01*
G37*
G36*
G01*
X131699999Y-116810000D02*
X132600001Y-116810000D01*
G75*
G02*
X132850000Y-117059999I0J-249999D01*
G01*
X132850000Y-117760001D01*
G75*
G02*
X132600001Y-118010000I-249999J0D01*
G01*
X131699999Y-118010000D01*
G75*
G02*
X131450000Y-117760001I0J249999D01*
G01*
X131450000Y-117059999D01*
G75*
G02*
X131699999Y-116810000I249999J0D01*
G01*
G37*
G36*
G01*
X129589999Y-118750000D02*
X130490001Y-118750000D01*
G75*
G02*
X130740000Y-118999999I0J-249999D01*
G01*
X130740000Y-119700001D01*
G75*
G02*
X130490001Y-119950000I-249999J0D01*
G01*
X129589999Y-119950000D01*
G75*
G02*
X129340000Y-119700001I0J249999D01*
G01*
X129340000Y-118999999D01*
G75*
G02*
X129589999Y-118750000I249999J0D01*
G01*
G37*
G36*
G01*
X129589999Y-116750000D02*
X130490001Y-116750000D01*
G75*
G02*
X130740000Y-116999999I0J-249999D01*
G01*
X130740000Y-117700001D01*
G75*
G02*
X130490001Y-117950000I-249999J0D01*
G01*
X129589999Y-117950000D01*
G75*
G02*
X129340000Y-117700001I0J249999D01*
G01*
X129340000Y-116999999D01*
G75*
G02*
X129589999Y-116750000I249999J0D01*
G01*
G37*
G36*
G01*
X126475000Y-117890000D02*
X125525000Y-117890000D01*
G75*
G02*
X125275000Y-117640000I0J250000D01*
G01*
X125275000Y-116965000D01*
G75*
G02*
X125525000Y-116715000I250000J0D01*
G01*
X126475000Y-116715000D01*
G75*
G02*
X126725000Y-116965000I0J-250000D01*
G01*
X126725000Y-117640000D01*
G75*
G02*
X126475000Y-117890000I-250000J0D01*
G01*
G37*
G36*
G01*
X126475000Y-119965000D02*
X125525000Y-119965000D01*
G75*
G02*
X125275000Y-119715000I0J250000D01*
G01*
X125275000Y-119040000D01*
G75*
G02*
X125525000Y-118790000I250000J0D01*
G01*
X126475000Y-118790000D01*
G75*
G02*
X126725000Y-119040000I0J-250000D01*
G01*
X126725000Y-119715000D01*
G75*
G02*
X126475000Y-119965000I-250000J0D01*
G01*
G37*
D17*
X135821600Y-94784200D03*
X136821600Y-94784200D03*
X137821600Y-94784200D03*
X138821600Y-94784200D03*
X139821600Y-94784200D03*
X140821600Y-94784200D03*
X141821600Y-94784200D03*
X142821600Y-94784200D03*
X143821600Y-94784200D03*
X144821600Y-94784200D03*
X145821600Y-94784200D03*
X146821600Y-94784200D03*
D18*
X148721600Y-98684200D03*
X148721600Y-99684200D03*
X148721600Y-100684200D03*
X148721600Y-101684200D03*
X148721600Y-102684200D03*
X148721600Y-103684200D03*
X148721600Y-104684200D03*
X148721600Y-105684200D03*
D17*
X146821600Y-109584200D03*
X145821600Y-109584200D03*
X144821600Y-109584200D03*
X143821600Y-109584200D03*
X142821600Y-109584200D03*
X137821600Y-109584200D03*
X136821600Y-109584200D03*
X135821600Y-109584200D03*
D18*
X133421600Y-105684200D03*
X133421600Y-104684200D03*
X133421600Y-103684200D03*
X133421600Y-102684200D03*
G36*
G01*
X128139999Y-95950000D02*
X129040001Y-95950000D01*
G75*
G02*
X129290000Y-96199999I0J-249999D01*
G01*
X129290000Y-96900001D01*
G75*
G02*
X129040001Y-97150000I-249999J0D01*
G01*
X128139999Y-97150000D01*
G75*
G02*
X127890000Y-96900001I0J249999D01*
G01*
X127890000Y-96199999D01*
G75*
G02*
X128139999Y-95950000I249999J0D01*
G01*
G37*
G36*
G01*
X128139999Y-93950000D02*
X129040001Y-93950000D01*
G75*
G02*
X129290000Y-94199999I0J-249999D01*
G01*
X129290000Y-94900001D01*
G75*
G02*
X129040001Y-95150000I-249999J0D01*
G01*
X128139999Y-95150000D01*
G75*
G02*
X127890000Y-94900001I0J249999D01*
G01*
X127890000Y-94199999D01*
G75*
G02*
X128139999Y-93950000I249999J0D01*
G01*
G37*
G36*
G01*
X126109999Y-93940000D02*
X127010001Y-93940000D01*
G75*
G02*
X127260000Y-94189999I0J-249999D01*
G01*
X127260000Y-94890001D01*
G75*
G02*
X127010001Y-95140000I-249999J0D01*
G01*
X126109999Y-95140000D01*
G75*
G02*
X125860000Y-94890001I0J249999D01*
G01*
X125860000Y-94189999D01*
G75*
G02*
X126109999Y-93940000I249999J0D01*
G01*
G37*
G36*
G01*
X126109999Y-95940000D02*
X127010001Y-95940000D01*
G75*
G02*
X127260000Y-96189999I0J-249999D01*
G01*
X127260000Y-96890001D01*
G75*
G02*
X127010001Y-97140000I-249999J0D01*
G01*
X126109999Y-97140000D01*
G75*
G02*
X125860000Y-96890001I0J249999D01*
G01*
X125860000Y-96189999D01*
G75*
G02*
X126109999Y-95940000I249999J0D01*
G01*
G37*
G36*
G01*
X155860001Y-95100000D02*
X154959999Y-95100000D01*
G75*
G02*
X154710000Y-94850001I0J249999D01*
G01*
X154710000Y-94149999D01*
G75*
G02*
X154959999Y-93900000I249999J0D01*
G01*
X155860001Y-93900000D01*
G75*
G02*
X156110000Y-94149999I0J-249999D01*
G01*
X156110000Y-94850001D01*
G75*
G02*
X155860001Y-95100000I-249999J0D01*
G01*
G37*
G36*
G01*
X155860001Y-97100000D02*
X154959999Y-97100000D01*
G75*
G02*
X154710000Y-96850001I0J249999D01*
G01*
X154710000Y-96149999D01*
G75*
G02*
X154959999Y-95900000I249999J0D01*
G01*
X155860001Y-95900000D01*
G75*
G02*
X156110000Y-96149999I0J-249999D01*
G01*
X156110000Y-96850001D01*
G75*
G02*
X155860001Y-97100000I-249999J0D01*
G01*
G37*
G36*
G01*
X153830001Y-95110000D02*
X152929999Y-95110000D01*
G75*
G02*
X152680000Y-94860001I0J249999D01*
G01*
X152680000Y-94159999D01*
G75*
G02*
X152929999Y-93910000I249999J0D01*
G01*
X153830001Y-93910000D01*
G75*
G02*
X154080000Y-94159999I0J-249999D01*
G01*
X154080000Y-94860001D01*
G75*
G02*
X153830001Y-95110000I-249999J0D01*
G01*
G37*
G36*
G01*
X153830001Y-97110000D02*
X152929999Y-97110000D01*
G75*
G02*
X152680000Y-96860001I0J249999D01*
G01*
X152680000Y-96159999D01*
G75*
G02*
X152929999Y-95910000I249999J0D01*
G01*
X153830001Y-95910000D01*
G75*
G02*
X154080000Y-96159999I0J-249999D01*
G01*
X154080000Y-96860001D01*
G75*
G02*
X153830001Y-97110000I-249999J0D01*
G01*
G37*
D19*
X152800000Y-126670000D03*
X153300000Y-126670000D03*
X153800000Y-126670000D03*
X156300000Y-126670000D03*
X155800000Y-126670000D03*
X155300000Y-126670000D03*
X154300000Y-126670000D03*
X154800000Y-126670000D03*
D20*
X156950000Y-126670000D03*
X152150000Y-126670000D03*
X157750000Y-126670000D03*
X151350000Y-126670000D03*
D21*
X151660000Y-127925000D03*
X157440000Y-127925000D03*
D22*
X158870000Y-127245000D03*
X150230000Y-127245000D03*
D23*
X158870000Y-131425000D03*
X150230000Y-131425000D03*
G36*
G01*
X149674600Y-113862300D02*
X148724600Y-113862300D01*
G75*
G02*
X148474600Y-113612300I0J250000D01*
G01*
X148474600Y-112937300D01*
G75*
G02*
X148724600Y-112687300I250000J0D01*
G01*
X149674600Y-112687300D01*
G75*
G02*
X149924600Y-112937300I0J-250000D01*
G01*
X149924600Y-113612300D01*
G75*
G02*
X149674600Y-113862300I-250000J0D01*
G01*
G37*
G36*
G01*
X149674600Y-115937300D02*
X148724600Y-115937300D01*
G75*
G02*
X148474600Y-115687300I0J250000D01*
G01*
X148474600Y-115012300D01*
G75*
G02*
X148724600Y-114762300I250000J0D01*
G01*
X149674600Y-114762300D01*
G75*
G02*
X149924600Y-115012300I0J-250000D01*
G01*
X149924600Y-115687300D01*
G75*
G02*
X149674600Y-115937300I-250000J0D01*
G01*
G37*
D24*
X118043200Y-128696400D03*
D25*
X118043200Y-126156400D03*
X118043200Y-123616400D03*
X118043200Y-121076400D03*
X118043200Y-118536400D03*
X118043200Y-115996400D03*
X118043200Y-113456400D03*
X118043200Y-105836400D03*
X118043200Y-108376400D03*
X118043200Y-110916400D03*
D24*
X118033800Y-102128000D03*
D25*
X118033800Y-99588000D03*
X118033800Y-97048000D03*
X118033800Y-94508000D03*
X118033800Y-91968000D03*
X118033800Y-89428000D03*
X118033800Y-86888000D03*
X118033800Y-79268000D03*
X118033800Y-81808000D03*
X118033800Y-84348000D03*
D24*
X165120000Y-74498200D03*
D25*
X162580000Y-74498200D03*
X160040000Y-74498200D03*
X157500000Y-74498200D03*
X154960000Y-74498200D03*
X147340000Y-74498200D03*
X149880000Y-74498200D03*
X152420000Y-74498200D03*
D24*
X165134000Y-111257600D03*
D25*
X165134000Y-108717600D03*
X165134000Y-106177600D03*
X165134000Y-103637600D03*
X165134000Y-101097600D03*
X165134000Y-98557600D03*
X165134000Y-96017600D03*
X165134000Y-88397600D03*
X165134000Y-90937600D03*
X165134000Y-93477600D03*
D26*
X156540200Y-116022200D03*
X156540200Y-115072200D03*
X156540200Y-114122200D03*
X153120200Y-114122200D03*
X153120200Y-116022200D03*
D27*
X137380000Y-124300800D03*
X138030000Y-124300800D03*
X138680000Y-124300800D03*
X139330000Y-124300800D03*
X139980000Y-124300800D03*
X140630000Y-124300800D03*
X141280000Y-124300800D03*
X141930000Y-124300800D03*
X142580000Y-124300800D03*
X143230000Y-124300800D03*
X143880000Y-124300800D03*
X144530000Y-124300800D03*
X145180000Y-124300800D03*
X145830000Y-124300800D03*
X145830000Y-117100800D03*
X145180000Y-117100800D03*
X144530000Y-117100800D03*
X143880000Y-117100800D03*
X143230000Y-117100800D03*
X142580000Y-117100800D03*
X141930000Y-117100800D03*
X141280000Y-117100800D03*
X140630000Y-117100800D03*
X139980000Y-117100800D03*
X139330000Y-117100800D03*
X138680000Y-117100800D03*
X138030000Y-117100800D03*
X137380000Y-117100800D03*
D16*
X165366600Y-79487200D03*
X165366600Y-83987200D03*
X157416600Y-83987200D03*
X157416600Y-79487200D03*
X145351600Y-83987200D03*
X145351600Y-79487200D03*
X153301600Y-79487200D03*
X153301600Y-83987200D03*
G36*
G01*
X157134000Y-122217601D02*
X157134000Y-121317599D01*
G75*
G02*
X157383999Y-121067600I249999J0D01*
G01*
X158084001Y-121067600D01*
G75*
G02*
X158334000Y-121317599I0J-249999D01*
G01*
X158334000Y-122217601D01*
G75*
G02*
X158084001Y-122467600I-249999J0D01*
G01*
X157383999Y-122467600D01*
G75*
G02*
X157134000Y-122217601I0J249999D01*
G01*
G37*
G36*
G01*
X159134000Y-122217601D02*
X159134000Y-121317599D01*
G75*
G02*
X159383999Y-121067600I249999J0D01*
G01*
X160084001Y-121067600D01*
G75*
G02*
X160334000Y-121317599I0J-249999D01*
G01*
X160334000Y-122217601D01*
G75*
G02*
X160084001Y-122467600I-249999J0D01*
G01*
X159383999Y-122467600D01*
G75*
G02*
X159134000Y-122217601I0J249999D01*
G01*
G37*
G36*
G01*
X157134000Y-119677601D02*
X157134000Y-118777599D01*
G75*
G02*
X157383999Y-118527600I249999J0D01*
G01*
X158084001Y-118527600D01*
G75*
G02*
X158334000Y-118777599I0J-249999D01*
G01*
X158334000Y-119677601D01*
G75*
G02*
X158084001Y-119927600I-249999J0D01*
G01*
X157383999Y-119927600D01*
G75*
G02*
X157134000Y-119677601I0J249999D01*
G01*
G37*
G36*
G01*
X159134000Y-119677601D02*
X159134000Y-118777599D01*
G75*
G02*
X159383999Y-118527600I249999J0D01*
G01*
X160084001Y-118527600D01*
G75*
G02*
X160334000Y-118777599I0J-249999D01*
G01*
X160334000Y-119677601D01*
G75*
G02*
X160084001Y-119927600I-249999J0D01*
G01*
X159383999Y-119927600D01*
G75*
G02*
X159134000Y-119677601I0J249999D01*
G01*
G37*
G36*
G01*
X152714000Y-118777599D02*
X152714000Y-119677601D01*
G75*
G02*
X152464001Y-119927600I-249999J0D01*
G01*
X151763999Y-119927600D01*
G75*
G02*
X151514000Y-119677601I0J249999D01*
G01*
X151514000Y-118777599D01*
G75*
G02*
X151763999Y-118527600I249999J0D01*
G01*
X152464001Y-118527600D01*
G75*
G02*
X152714000Y-118777599I0J-249999D01*
G01*
G37*
G36*
G01*
X150714000Y-118777599D02*
X150714000Y-119677601D01*
G75*
G02*
X150464001Y-119927600I-249999J0D01*
G01*
X149763999Y-119927600D01*
G75*
G02*
X149514000Y-119677601I0J249999D01*
G01*
X149514000Y-118777599D01*
G75*
G02*
X149763999Y-118527600I249999J0D01*
G01*
X150464001Y-118527600D01*
G75*
G02*
X150714000Y-118777599I0J-249999D01*
G01*
G37*
G36*
G01*
X152714000Y-121317599D02*
X152714000Y-122217601D01*
G75*
G02*
X152464001Y-122467600I-249999J0D01*
G01*
X151763999Y-122467600D01*
G75*
G02*
X151514000Y-122217601I0J249999D01*
G01*
X151514000Y-121317599D01*
G75*
G02*
X151763999Y-121067600I249999J0D01*
G01*
X152464001Y-121067600D01*
G75*
G02*
X152714000Y-121317599I0J-249999D01*
G01*
G37*
G36*
G01*
X150714000Y-121317599D02*
X150714000Y-122217601D01*
G75*
G02*
X150464001Y-122467600I-249999J0D01*
G01*
X149763999Y-122467600D01*
G75*
G02*
X149514000Y-122217601I0J249999D01*
G01*
X149514000Y-121317599D01*
G75*
G02*
X149763999Y-121067600I249999J0D01*
G01*
X150464001Y-121067600D01*
G75*
G02*
X150714000Y-121317599I0J-249999D01*
G01*
G37*
G36*
G01*
X126049999Y-83750000D02*
X126950001Y-83750000D01*
G75*
G02*
X127200000Y-83999999I0J-249999D01*
G01*
X127200000Y-84700001D01*
G75*
G02*
X126950001Y-84950000I-249999J0D01*
G01*
X126049999Y-84950000D01*
G75*
G02*
X125800000Y-84700001I0J249999D01*
G01*
X125800000Y-83999999D01*
G75*
G02*
X126049999Y-83750000I249999J0D01*
G01*
G37*
G36*
G01*
X126049999Y-85750000D02*
X126950001Y-85750000D01*
G75*
G02*
X127200000Y-85999999I0J-249999D01*
G01*
X127200000Y-86700001D01*
G75*
G02*
X126950001Y-86950000I-249999J0D01*
G01*
X126049999Y-86950000D01*
G75*
G02*
X125800000Y-86700001I0J249999D01*
G01*
X125800000Y-85999999D01*
G75*
G02*
X126049999Y-85750000I249999J0D01*
G01*
G37*
G36*
G01*
X134102800Y-74948201D02*
X134102800Y-74048199D01*
G75*
G02*
X134352799Y-73798200I249999J0D01*
G01*
X135052801Y-73798200D01*
G75*
G02*
X135302800Y-74048199I0J-249999D01*
G01*
X135302800Y-74948201D01*
G75*
G02*
X135052801Y-75198200I-249999J0D01*
G01*
X134352799Y-75198200D01*
G75*
G02*
X134102800Y-74948201I0J249999D01*
G01*
G37*
G36*
G01*
X136102800Y-74948201D02*
X136102800Y-74048199D01*
G75*
G02*
X136352799Y-73798200I249999J0D01*
G01*
X137052801Y-73798200D01*
G75*
G02*
X137302800Y-74048199I0J-249999D01*
G01*
X137302800Y-74948201D01*
G75*
G02*
X137052801Y-75198200I-249999J0D01*
G01*
X136352799Y-75198200D01*
G75*
G02*
X136102800Y-74948201I0J249999D01*
G01*
G37*
G36*
G01*
X136836999Y-87149000D02*
X137737001Y-87149000D01*
G75*
G02*
X137987000Y-87398999I0J-249999D01*
G01*
X137987000Y-88099001D01*
G75*
G02*
X137737001Y-88349000I-249999J0D01*
G01*
X136836999Y-88349000D01*
G75*
G02*
X136587000Y-88099001I0J249999D01*
G01*
X136587000Y-87398999D01*
G75*
G02*
X136836999Y-87149000I249999J0D01*
G01*
G37*
G36*
G01*
X136836999Y-89149000D02*
X137737001Y-89149000D01*
G75*
G02*
X137987000Y-89398999I0J-249999D01*
G01*
X137987000Y-90099001D01*
G75*
G02*
X137737001Y-90349000I-249999J0D01*
G01*
X136836999Y-90349000D01*
G75*
G02*
X136587000Y-90099001I0J249999D01*
G01*
X136587000Y-89398999D01*
G75*
G02*
X136836999Y-89149000I249999J0D01*
G01*
G37*
G36*
G01*
X138995999Y-87174400D02*
X139896001Y-87174400D01*
G75*
G02*
X140146000Y-87424399I0J-249999D01*
G01*
X140146000Y-88124401D01*
G75*
G02*
X139896001Y-88374400I-249999J0D01*
G01*
X138995999Y-88374400D01*
G75*
G02*
X138746000Y-88124401I0J249999D01*
G01*
X138746000Y-87424399D01*
G75*
G02*
X138995999Y-87174400I249999J0D01*
G01*
G37*
G36*
G01*
X138995999Y-89174400D02*
X139896001Y-89174400D01*
G75*
G02*
X140146000Y-89424399I0J-249999D01*
G01*
X140146000Y-90124401D01*
G75*
G02*
X139896001Y-90374400I-249999J0D01*
G01*
X138995999Y-90374400D01*
G75*
G02*
X138746000Y-90124401I0J249999D01*
G01*
X138746000Y-89424399D01*
G75*
G02*
X138995999Y-89174400I249999J0D01*
G01*
G37*
G36*
G01*
X135262199Y-78851200D02*
X136162201Y-78851200D01*
G75*
G02*
X136412200Y-79101199I0J-249999D01*
G01*
X136412200Y-79801201D01*
G75*
G02*
X136162201Y-80051200I-249999J0D01*
G01*
X135262199Y-80051200D01*
G75*
G02*
X135012200Y-79801201I0J249999D01*
G01*
X135012200Y-79101199D01*
G75*
G02*
X135262199Y-78851200I249999J0D01*
G01*
G37*
G36*
G01*
X135262199Y-80851200D02*
X136162201Y-80851200D01*
G75*
G02*
X136412200Y-81101199I0J-249999D01*
G01*
X136412200Y-81801201D01*
G75*
G02*
X136162201Y-82051200I-249999J0D01*
G01*
X135262199Y-82051200D01*
G75*
G02*
X135012200Y-81801201I0J249999D01*
G01*
X135012200Y-81101199D01*
G75*
G02*
X135262199Y-80851200I249999J0D01*
G01*
G37*
G36*
G01*
X142791601Y-82051200D02*
X141891599Y-82051200D01*
G75*
G02*
X141641600Y-81801201I0J249999D01*
G01*
X141641600Y-81101199D01*
G75*
G02*
X141891599Y-80851200I249999J0D01*
G01*
X142791601Y-80851200D01*
G75*
G02*
X143041600Y-81101199I0J-249999D01*
G01*
X143041600Y-81801201D01*
G75*
G02*
X142791601Y-82051200I-249999J0D01*
G01*
G37*
G36*
G01*
X142791601Y-80051200D02*
X141891599Y-80051200D01*
G75*
G02*
X141641600Y-79801201I0J249999D01*
G01*
X141641600Y-79101199D01*
G75*
G02*
X141891599Y-78851200I249999J0D01*
G01*
X142791601Y-78851200D01*
G75*
G02*
X143041600Y-79101199I0J-249999D01*
G01*
X143041600Y-79801201D01*
G75*
G02*
X142791601Y-80051200I-249999J0D01*
G01*
G37*
G36*
G01*
X140810401Y-82051200D02*
X139910399Y-82051200D01*
G75*
G02*
X139660400Y-81801201I0J249999D01*
G01*
X139660400Y-81101199D01*
G75*
G02*
X139910399Y-80851200I249999J0D01*
G01*
X140810401Y-80851200D01*
G75*
G02*
X141060400Y-81101199I0J-249999D01*
G01*
X141060400Y-81801201D01*
G75*
G02*
X140810401Y-82051200I-249999J0D01*
G01*
G37*
G36*
G01*
X140810401Y-80051200D02*
X139910399Y-80051200D01*
G75*
G02*
X139660400Y-79801201I0J249999D01*
G01*
X139660400Y-79101199D01*
G75*
G02*
X139910399Y-78851200I249999J0D01*
G01*
X140810401Y-78851200D01*
G75*
G02*
X141060400Y-79101199I0J-249999D01*
G01*
X141060400Y-79801201D01*
G75*
G02*
X140810401Y-80051200I-249999J0D01*
G01*
G37*
G36*
G01*
X146246001Y-130089200D02*
X145345999Y-130089200D01*
G75*
G02*
X145096000Y-129839201I0J249999D01*
G01*
X145096000Y-129139199D01*
G75*
G02*
X145345999Y-128889200I249999J0D01*
G01*
X146246001Y-128889200D01*
G75*
G02*
X146496000Y-129139199I0J-249999D01*
G01*
X146496000Y-129839201D01*
G75*
G02*
X146246001Y-130089200I-249999J0D01*
G01*
G37*
G36*
G01*
X146246001Y-128089200D02*
X145345999Y-128089200D01*
G75*
G02*
X145096000Y-127839201I0J249999D01*
G01*
X145096000Y-127139199D01*
G75*
G02*
X145345999Y-126889200I249999J0D01*
G01*
X146246001Y-126889200D01*
G75*
G02*
X146496000Y-127139199I0J-249999D01*
G01*
X146496000Y-127839201D01*
G75*
G02*
X146246001Y-128089200I-249999J0D01*
G01*
G37*
G36*
G01*
X141309000Y-74048199D02*
X141309000Y-74948201D01*
G75*
G02*
X141059001Y-75198200I-249999J0D01*
G01*
X140408999Y-75198200D01*
G75*
G02*
X140159000Y-74948201I0J249999D01*
G01*
X140159000Y-74048199D01*
G75*
G02*
X140408999Y-73798200I249999J0D01*
G01*
X141059001Y-73798200D01*
G75*
G02*
X141309000Y-74048199I0J-249999D01*
G01*
G37*
G36*
G01*
X139259000Y-74048199D02*
X139259000Y-74948201D01*
G75*
G02*
X139009001Y-75198200I-249999J0D01*
G01*
X138358999Y-75198200D01*
G75*
G02*
X138109000Y-74948201I0J249999D01*
G01*
X138109000Y-74048199D01*
G75*
G02*
X138358999Y-73798200I249999J0D01*
G01*
X139009001Y-73798200D01*
G75*
G02*
X139259000Y-74048199I0J-249999D01*
G01*
G37*
G36*
G01*
X141291400Y-129837601D02*
X141291400Y-128937599D01*
G75*
G02*
X141541399Y-128687600I249999J0D01*
G01*
X142191401Y-128687600D01*
G75*
G02*
X142441400Y-128937599I0J-249999D01*
G01*
X142441400Y-129837601D01*
G75*
G02*
X142191401Y-130087600I-249999J0D01*
G01*
X141541399Y-130087600D01*
G75*
G02*
X141291400Y-129837601I0J249999D01*
G01*
G37*
G36*
G01*
X143341400Y-129837601D02*
X143341400Y-128937599D01*
G75*
G02*
X143591399Y-128687600I249999J0D01*
G01*
X144241401Y-128687600D01*
G75*
G02*
X144491400Y-128937599I0J-249999D01*
G01*
X144491400Y-129837601D01*
G75*
G02*
X144241401Y-130087600I-249999J0D01*
G01*
X143591399Y-130087600D01*
G75*
G02*
X143341400Y-129837601I0J249999D01*
G01*
G37*
G36*
G01*
X163759001Y-130907600D02*
X162508999Y-130907600D01*
G75*
G02*
X162259000Y-130657601I0J249999D01*
G01*
X162259000Y-129957599D01*
G75*
G02*
X162508999Y-129707600I249999J0D01*
G01*
X163759001Y-129707600D01*
G75*
G02*
X164009000Y-129957599I0J-249999D01*
G01*
X164009000Y-130657601D01*
G75*
G02*
X163759001Y-130907600I-249999J0D01*
G01*
G37*
D28*
X163134000Y-128307600D03*
D29*
X126441200Y-76283400D03*
D30*
X130821200Y-76283400D03*
X122061200Y-76283400D03*
G36*
G01*
X162120800Y-116881400D02*
X164929600Y-116881400D01*
G75*
G02*
X165275200Y-117227000I0J-345600D01*
G01*
X165275200Y-118335800D01*
G75*
G02*
X164929600Y-118681400I-345600J0D01*
G01*
X162120800Y-118681400D01*
G75*
G02*
X161775200Y-118335800I0J345600D01*
G01*
X161775200Y-117227000D01*
G75*
G02*
X162120800Y-116881400I345600J0D01*
G01*
G37*
G36*
G01*
X162120800Y-122111400D02*
X164929600Y-122111400D01*
G75*
G02*
X165275200Y-122457000I0J-345600D01*
G01*
X165275200Y-123565800D01*
G75*
G02*
X164929600Y-123911400I-345600J0D01*
G01*
X162120800Y-123911400D01*
G75*
G02*
X161775200Y-123565800I0J345600D01*
G01*
X161775200Y-122457000D01*
G75*
G02*
X162120800Y-122111400I345600J0D01*
G01*
G37*
G36*
G01*
X159784201Y-112175200D02*
X158884199Y-112175200D01*
G75*
G02*
X158634200Y-111925201I0J249999D01*
G01*
X158634200Y-111275199D01*
G75*
G02*
X158884199Y-111025200I249999J0D01*
G01*
X159784201Y-111025200D01*
G75*
G02*
X160034200Y-111275199I0J-249999D01*
G01*
X160034200Y-111925201D01*
G75*
G02*
X159784201Y-112175200I-249999J0D01*
G01*
G37*
G36*
G01*
X159784201Y-110125200D02*
X158884199Y-110125200D01*
G75*
G02*
X158634200Y-109875201I0J249999D01*
G01*
X158634200Y-109225199D01*
G75*
G02*
X158884199Y-108975200I249999J0D01*
G01*
X159784201Y-108975200D01*
G75*
G02*
X160034200Y-109225199I0J-249999D01*
G01*
X160034200Y-109875201D01*
G75*
G02*
X159784201Y-110125200I-249999J0D01*
G01*
G37*
G36*
G01*
X160308600Y-115486601D02*
X160308600Y-114586599D01*
G75*
G02*
X160558599Y-114336600I249999J0D01*
G01*
X161208601Y-114336600D01*
G75*
G02*
X161458600Y-114586599I0J-249999D01*
G01*
X161458600Y-115486601D01*
G75*
G02*
X161208601Y-115736600I-249999J0D01*
G01*
X160558599Y-115736600D01*
G75*
G02*
X160308600Y-115486601I0J249999D01*
G01*
G37*
G36*
G01*
X162358600Y-115486601D02*
X162358600Y-114586599D01*
G75*
G02*
X162608599Y-114336600I249999J0D01*
G01*
X163258601Y-114336600D01*
G75*
G02*
X163508600Y-114586599I0J-249999D01*
G01*
X163508600Y-115486601D01*
G75*
G02*
X163258601Y-115736600I-249999J0D01*
G01*
X162608599Y-115736600D01*
G75*
G02*
X162358600Y-115486601I0J249999D01*
G01*
G37*
G36*
G01*
X153107900Y-111396800D02*
X153107900Y-110446800D01*
G75*
G02*
X153357900Y-110196800I250000J0D01*
G01*
X154032900Y-110196800D01*
G75*
G02*
X154282900Y-110446800I0J-250000D01*
G01*
X154282900Y-111396800D01*
G75*
G02*
X154032900Y-111646800I-250000J0D01*
G01*
X153357900Y-111646800D01*
G75*
G02*
X153107900Y-111396800I0J250000D01*
G01*
G37*
G36*
G01*
X155182900Y-111396800D02*
X155182900Y-110446800D01*
G75*
G02*
X155432900Y-110196800I250000J0D01*
G01*
X156107900Y-110196800D01*
G75*
G02*
X156357900Y-110446800I0J-250000D01*
G01*
X156357900Y-111396800D01*
G75*
G02*
X156107900Y-111646800I-250000J0D01*
G01*
X155432900Y-111646800D01*
G75*
G02*
X155182900Y-111396800I0J250000D01*
G01*
G37*
G36*
G01*
X147353000Y-126818900D02*
X148303000Y-126818900D01*
G75*
G02*
X148553000Y-127068900I0J-250000D01*
G01*
X148553000Y-127743900D01*
G75*
G02*
X148303000Y-127993900I-250000J0D01*
G01*
X147353000Y-127993900D01*
G75*
G02*
X147103000Y-127743900I0J250000D01*
G01*
X147103000Y-127068900D01*
G75*
G02*
X147353000Y-126818900I250000J0D01*
G01*
G37*
G36*
G01*
X147353000Y-128893900D02*
X148303000Y-128893900D01*
G75*
G02*
X148553000Y-129143900I0J-250000D01*
G01*
X148553000Y-129818900D01*
G75*
G02*
X148303000Y-130068900I-250000J0D01*
G01*
X147353000Y-130068900D01*
G75*
G02*
X147103000Y-129818900I0J250000D01*
G01*
X147103000Y-129143900D01*
G75*
G02*
X147353000Y-128893900I250000J0D01*
G01*
G37*
G36*
G01*
X137269200Y-78838300D02*
X138219200Y-78838300D01*
G75*
G02*
X138469200Y-79088300I0J-250000D01*
G01*
X138469200Y-79763300D01*
G75*
G02*
X138219200Y-80013300I-250000J0D01*
G01*
X137269200Y-80013300D01*
G75*
G02*
X137019200Y-79763300I0J250000D01*
G01*
X137019200Y-79088300D01*
G75*
G02*
X137269200Y-78838300I250000J0D01*
G01*
G37*
G36*
G01*
X137269200Y-80913300D02*
X138219200Y-80913300D01*
G75*
G02*
X138469200Y-81163300I0J-250000D01*
G01*
X138469200Y-81838300D01*
G75*
G02*
X138219200Y-82088300I-250000J0D01*
G01*
X137269200Y-82088300D01*
G75*
G02*
X137019200Y-81838300I0J250000D01*
G01*
X137019200Y-81163300D01*
G75*
G02*
X137269200Y-80913300I250000J0D01*
G01*
G37*
G36*
G01*
X153064900Y-109364800D02*
X153064900Y-108414800D01*
G75*
G02*
X153314900Y-108164800I250000J0D01*
G01*
X153989900Y-108164800D01*
G75*
G02*
X154239900Y-108414800I0J-250000D01*
G01*
X154239900Y-109364800D01*
G75*
G02*
X153989900Y-109614800I-250000J0D01*
G01*
X153314900Y-109614800D01*
G75*
G02*
X153064900Y-109364800I0J250000D01*
G01*
G37*
G36*
G01*
X155139900Y-109364800D02*
X155139900Y-108414800D01*
G75*
G02*
X155389900Y-108164800I250000J0D01*
G01*
X156064900Y-108164800D01*
G75*
G02*
X156314900Y-108414800I0J-250000D01*
G01*
X156314900Y-109364800D01*
G75*
G02*
X156064900Y-109614800I-250000J0D01*
G01*
X155389900Y-109614800D01*
G75*
G02*
X155139900Y-109364800I0J250000D01*
G01*
G37*
G36*
G01*
X153082500Y-107332800D02*
X153082500Y-106382800D01*
G75*
G02*
X153332500Y-106132800I250000J0D01*
G01*
X154007500Y-106132800D01*
G75*
G02*
X154257500Y-106382800I0J-250000D01*
G01*
X154257500Y-107332800D01*
G75*
G02*
X154007500Y-107582800I-250000J0D01*
G01*
X153332500Y-107582800D01*
G75*
G02*
X153082500Y-107332800I0J250000D01*
G01*
G37*
G36*
G01*
X155157500Y-107332800D02*
X155157500Y-106382800D01*
G75*
G02*
X155407500Y-106132800I250000J0D01*
G01*
X156082500Y-106132800D01*
G75*
G02*
X156332500Y-106382800I0J-250000D01*
G01*
X156332500Y-107332800D01*
G75*
G02*
X156082500Y-107582800I-250000J0D01*
G01*
X155407500Y-107582800D01*
G75*
G02*
X155157500Y-107332800I0J250000D01*
G01*
G37*
M02*
